<ttFont>
        <CharString name=".notdef">
          -264 endchar
        </CharString>
        <CharString name="A">
          239 471 98 rmoveto
          -24 -22 -2 -4 -35 hvcurveto
          -4 -95 rlineto
          4 49 61 4 65 hhcurveto
          61 56 -4 -4 43 hvcurveto
          4 86 -83 56 -212 560 -125 -20 -258 -581 rlineto
          -21 -16 -3 -3 -21 hvcurveto
          -4 -95 rlineto
          5 43 42 3 55 hhcurveto
          56 41 -4 -4 43 hvcurveto
          4 86 -65 56 18 51 81 5 78 3 59 1 rlinecurve
          -112 299 rmoveto
          20 hlineto
          58 -188 rlineto
          -143 hlineto
          endchar
        </CharString>
        <CharString name="AE">
          520 822 556 rmoveto
          13 -104 rlineto
          113 hlineto
          15 230 rlineto
          -8 -114 -170 0 -98 hhcurveto
          -104 -188 0 8 -81 hvcurveto
          -4 -86 94 -56 -265 -442 -21 -1 -14 -2 -21 -4 rlinecurve
          -4 -94 rlineto
          4 41 47 4 55 hhcurveto
          54 64 -3 -5 45 hvcurveto
          4 86 -65 55 26 50 84 7 73 3 51 1 rlinecurve
          -1 -43 -3 -37 -1 -21 rrcurveto
          -15 -20 -2 -1 -16 hvcurveto
          -30 -3 -4 -95 rlineto
          5 80 65 3 77 hhcurveto
          124 117 -6 -9 107 hvcurveto
          29 244 rlineto
          -117 hlineto
          -32 -111 -197 -14 3 184 194 -13 5 121 -195 -8 8 182 rlineto
          -186 -11 rmoveto
          20 hlineto
          -3 -56 -1 -103 -3 -95 rrcurveto
          -148 hlineto
          endchar
        </CharString>
        <CharString name="Aacute">
          239 471 98 rmoveto
          -24 -22 -2 -4 -35 hvcurveto
          -4 -95 rlineto
          4 49 61 4 65 hhcurveto
          61 56 -4 -4 43 hvcurveto
          4 86 -83 56 -212 560 -125 -20 -258 -581 rlineto
          -21 -16 -3 -3 -21 hvcurveto
          -4 -95 rlineto
          5 43 42 3 55 hhcurveto
          56 41 -4 -4 43 hvcurveto
          4 86 -65 56 18 51 81 5 78 3 59 1 rlinecurve
          -112 299 rmoveto
          20 hlineto
          58 -188 rlineto
          -143 hlineto
          98 424 rmoveto
          190 121 -19 13 -41 56 -13 21 rlinecurve
          -159 -155 rlineto
          endchar
        </CharString>
        <CharString name="Acircumflex">
          239 471 98 rmoveto
          -24 -22 -2 -4 -35 hvcurveto
          -4 -95 rlineto
          4 49 61 4 65 hhcurveto
          61 56 -4 -4 43 hvcurveto
          4 86 -83 56 -212 560 -125 -20 -258 -581 rlineto
          -21 -16 -3 -3 -21 hvcurveto
          -4 -95 rlineto
          5 43 42 3 55 hhcurveto
          56 41 -4 -4 43 hvcurveto
          4 86 -65 56 18 51 81 5 78 3 59 1 rlinecurve
          -112 299 rmoveto
          20 hlineto
          58 -188 rlineto
          -143 hlineto
          118 505 rmoveto
          101 -81 51 50 -120 138 rlineto
          -60 hlineto
          -131 -138 49 -50 rlineto
          endchar
        </CharString>
        <CharString name="Adieresis">
          239 471 98 rmoveto
          -24 -22 -2 -4 -35 hvcurveto
          -4 -95 rlineto
          4 49 61 4 65 hhcurveto
          61 56 -4 -4 43 hvcurveto
          4 86 -83 56 -212 560 -125 -20 -258 -581 rlineto
          -21 -16 -3 -3 -21 hvcurveto
          -4 -95 rlineto
          5 43 42 3 55 hhcurveto
          56 41 -4 -4 43 hvcurveto
          4 86 -65 56 18 51 81 5 78 3 59 1 rlinecurve
          -112 299 rmoveto
          20 hlineto
          58 -188 rlineto
          -143 hlineto
          82 448 rmoveto
          7 0 7 1 9 vhcurveto
          15 1 20 3 25 vhcurveto
          -32 51 -102 -28 rlineto
          -7 0 -7 -1 -8 vhcurveto
          -15 -2 -19 -1 -25 vhcurveto
          32 -52 rlineto
          307 27 rmoveto
          23 vlineto
          1 15 1 20 3 25 -32 51 rcurveline
          -102 -28 rlineto
          -7 0 -7 -1 -8 vhcurveto
          -15 -2 -19 -1 -25 vhcurveto
          32 -52 rlineto
          endchar
        </CharString>
        <CharString name="Agrave">
          239 471 98 rmoveto
          -24 -22 -2 -4 -35 hvcurveto
          -4 -95 rlineto
          4 49 61 4 65 hhcurveto
          61 56 -4 -4 43 hvcurveto
          4 86 -83 56 -212 560 -125 -20 -258 -581 rlineto
          -21 -16 -3 -3 -21 hvcurveto
          -4 -95 rlineto
          5 43 42 3 55 hhcurveto
          56 41 -4 -4 43 hvcurveto
          4 86 -65 56 18 51 81 5 78 3 59 1 rlinecurve
          -112 299 rmoveto
          20 hlineto
          58 -188 rlineto
          -143 hlineto
          181 485 rmoveto
          -171 147 -14 -19 -37 -56 -16 -21 rlinecurve
          196 -112 rlineto
          endchar
        </CharString>
        <CharString name="Aring">
          239 471 98 rmoveto
          -24 -22 -2 -4 -35 hvcurveto
          -4 -95 rlineto
          4 49 61 4 65 hhcurveto
          61 56 -4 -4 43 hvcurveto
          4 86 -83 56 -212 560 -125 -20 -258 -581 rlineto
          -21 -16 -3 -3 -21 hvcurveto
          -4 -95 rlineto
          5 43 42 3 55 hhcurveto
          56 41 -4 -4 43 hvcurveto
          4 86 -65 56 18 51 81 5 78 3 59 1 rlinecurve
          -112 299 rmoveto
          20 hlineto
          58 -188 rlineto
          -143 hlineto
          117 591 rmoveto
          35 14 -30 -25 -35 -19 -19 -29 -35 -15 28 26 31 17 24 32 hvcurveto
          -125 -63 rmoveto
          -52 30 -55 84 74 62 57 72 53 -35 49 -78 -83 -54 -60 -64 vhcurveto
          endchar
        </CharString>
        <CharString name="Atilde">
          239 471 98 rmoveto
          -24 -22 -2 -4 -35 hvcurveto
          -4 -95 rlineto
          4 49 61 4 65 hhcurveto
          61 56 -4 -4 43 hvcurveto
          4 86 -83 56 -212 560 -125 -20 -258 -581 rlineto
          -21 -16 -3 -3 -21 hvcurveto
          -4 -95 rlineto
          5 43 42 3 55 hhcurveto
          56 41 -4 -4 43 hvcurveto
          4 86 -65 56 18 51 81 5 78 3 59 1 rlinecurve
          -112 299 rmoveto
          20 hlineto
          58 -188 rlineto
          -143 hlineto
          204 428 rmoveto
          106 115 -48 49 -66 -57 -42 13 -27 13 -41 22 rlinecurve
          -44 hlineto
          -100 -111 43 -51 70 60 31 -19 33 -18 43 -16 rlinecurve
          endchar
        </CharString>
        <CharString name="B">
          196 35 -3 rmoveto
          5 56 44 3 44 66 77 -15 72 hhcurveto
          161 91 88 121 92 -45 46 -64 29 hvcurveto
          32 27 30 58 64 vvcurveto
          101 -78 67 -153 vhcurveto
          -52 -54 -7 -65 hhcurveto
          -36 -33 2 1 -27 hvcurveto
          -45 3 -4 -86 83 -56 rlineto
          -86 -7 -262 -8 -94 vhcurveto
          -19 -20 -2 -1 -16 hvcurveto
          -26 -3 rlineto
          427 106 rmoveto
          -68 -44 -32 -52 -17 -41 5 16 -24 vhcurveto
          3 167 rlineto
          3 13 25 0 17 hhcurveto
          84 36 -37 -54 hvcurveto
          -122 197 rmoveto
          -10 -29 1 -2 -10 hvcurveto
          1 37 3 44 1 36 3 62 rcurveline
          1 5 16 0 5 hhcurveto
          68 43 -38 -66 -29 -13 -29 -16 -19 hvcurveto
          1 -23 -21 1 -23 hhcurveto
          endchar
        </CharString>
        <CharString name="C">
          204 644 452 rmoveto
          8 219 rlineto
          13 -59 -56 15 -103 hhcurveto
          -235 -161 -136 -236 -226 148 -121 225 89 89 21 21 62 hvcurveto
          -27 99 rlineto
          -11 -35 -59 -10 -61 hhcurveto
          -129 -125 66 183 160 91 82 94 55 32 -15 -19 20 hvcurveto
          14 -105 rlineto
          endchar
        </CharString>
        <CharString name="Ccedilla">
          204 484 -124 rmoveto
          42 -34 22 -36 14 vhcurveto
          3 26 rlineto
          88 85 21 21 61 hvcurveto
          -27 99 rlineto
          -11 -35 -59 -10 -61 hhcurveto
          -129 -125 66 183 160 91 82 94 55 32 -15 -19 20 hvcurveto
          14 -105 rlineto
          123 hlineto
          8 219 rlineto
          13 -59 -56 15 -103 hhcurveto
          -235 -161 -136 -236 -204 122 -119 188 -21 hvcurveto
          -14 -86 33 -15 28 -12 21 -16 rlinecurve
          -9 -4 -11 -6 -15 hhcurveto
          -32 -33 15 16 -29 hvcurveto
          -2 -91 rlineto
          -9 19 24 -5 21 hhcurveto
          67 63 45 66 hvcurveto
          endchar
        </CharString>
        <CharString name="D">
          309 35 -3 rmoveto
          5 54 58 3 22 74 66 -11 64 hhcurveto
          311 73 217 140 205 -129 128 -214 hvcurveto
          -90 -68 -11 -77 hhcurveto
          -23 -31 1 3 -24 hvcurveto
          -15 1 -15 2 -15 2 -4 -86 rcurveline
          83 -56 rlineto
          -84 -3 -195 -12 -163 vhcurveto
          -38 -21 -3 -3 -22 hvcurveto
          337 486 rmoveto
          165 37 -137 -85 -203 -121 -47 -66 -41 -41 9 7 -23 hvcurveto
          15 453 rlineto
          3 16 31 0 28 hhcurveto
          endchar
        </CharString>
        <CharString name="E">
          194 495 556 rmoveto
          13 -104 rlineto
          113 hlineto
          15 230 rlineto
          -7 -115 -112 -1 -88 hhcurveto
          -95 -89 0 8 -81 hvcurveto
          -4 -86 83 -56 rlineto
          -86 -7 -262 -8 -94 vhcurveto
          -15 -20 -2 -1 -17 hvcurveto
          -29 -3 -4 -95 rlineto
          5 79 67 3 76 hhcurveto
          124 116 -6 -9 108 hvcurveto
          29 244 rlineto
          -117 hlineto
          -32 -111 -197 -14 3 184 194 -13 5 121 -195 -8 8 182 rlineto
          endchar
        </CharString>
        <CharString name="Eacute">
          194 495 556 rmoveto
          13 -104 rlineto
          113 hlineto
          15 230 rlineto
          -7 -115 -112 -1 -88 hhcurveto
          -95 -89 0 8 -81 hvcurveto
          -4 -86 83 -56 rlineto
          -86 -7 -262 -8 -94 vhcurveto
          -15 -20 -2 -1 -17 hvcurveto
          -29 -3 -4 -95 rlineto
          5 79 67 3 76 hhcurveto
          124 116 -6 -9 108 hvcurveto
          29 244 rlineto
          -117 hlineto
          -32 -111 -197 -14 3 184 194 -13 5 121 -195 -8 8 182 rlineto
          30 159 rmoveto
          190 121 -19 13 -41 56 -13 21 rlinecurve
          -159 -155 rlineto
          endchar
        </CharString>
        <CharString name="Ecircumflex">
          194 495 556 rmoveto
          13 -104 rlineto
          113 hlineto
          15 230 rlineto
          -7 -115 -112 -1 -88 hhcurveto
          -95 -89 0 8 -81 hvcurveto
          -4 -86 83 -56 rlineto
          -86 -7 -262 -8 -94 vhcurveto
          -15 -20 -2 -1 -17 hvcurveto
          -29 -3 -4 -95 rlineto
          5 79 67 3 76 hhcurveto
          124 116 -6 -9 108 hvcurveto
          29 244 rlineto
          -117 hlineto
          -32 -111 -197 -14 3 184 194 -13 5 121 -195 -8 8 182 rlineto
          88 240 rmoveto
          101 -81 51 50 -120 138 rlineto
          -60 hlineto
          -131 -138 49 -50 rlineto
          endchar
        </CharString>
        <CharString name="Edieresis">
          194 495 556 rmoveto
          13 -104 rlineto
          113 hlineto
          15 230 rlineto
          -7 -115 -112 -1 -88 hhcurveto
          -95 -89 0 8 -81 hvcurveto
          -4 -86 83 -56 rlineto
          -86 -7 -262 -8 -94 vhcurveto
          -15 -20 -2 -1 -17 hvcurveto
          -29 -3 -4 -95 rlineto
          5 79 67 3 76 hhcurveto
          124 116 -6 -9 108 hvcurveto
          29 244 rlineto
          -117 hlineto
          -32 -111 -197 -14 3 184 194 -13 5 121 -195 -8 8 182 rlineto
          49 183 rmoveto
          7 0 7 1 9 vhcurveto
          15 1 20 3 25 vhcurveto
          -32 51 -102 -28 rlineto
          -7 0 -7 -1 -8 vhcurveto
          -15 -2 -19 -1 -25 vhcurveto
          32 -52 rlineto
          307 27 rmoveto
          23 vlineto
          1 15 1 20 3 25 -32 51 rcurveline
          -102 -28 rlineto
          -7 0 -7 -1 -8 vhcurveto
          -15 -2 -19 -1 -25 vhcurveto
          32 -52 rlineto
          endchar
        </CharString>
        <CharString name="Egrave">
          194 495 556 rmoveto
          13 -104 rlineto
          113 hlineto
          15 230 rlineto
          -7 -115 -112 -1 -88 hhcurveto
          -95 -89 0 8 -81 hvcurveto
          -4 -86 83 -56 rlineto
          -86 -7 -262 -8 -94 vhcurveto
          -15 -20 -2 -1 -17 hvcurveto
          -29 -3 -4 -95 rlineto
          5 79 67 3 76 hhcurveto
          124 116 -6 -9 108 hvcurveto
          29 244 rlineto
          -117 hlineto
          -32 -111 -197 -14 3 184 194 -13 5 121 -195 -8 8 182 rlineto
          162 220 rmoveto
          -171 147 -14 -19 -37 -56 -16 -21 rlinecurve
          196 -112 rlineto
          endchar
        </CharString>
        <CharString name="Eth">
          315 36 -3 rmoveto
          5 54 58 3 22 74 64 -11 66 hhcurveto
          312 78 217 140 205 -135 128 -214 hvcurveto
          -90 -68 -10 -77 hhcurveto
          -40 -40 3 5 -43 hvcurveto
          -4 -86 83 -56 rlineto
          -32 -1 -48 -1 -55 vhcurveto
          -95 hlineto
          -5 -126 32 3 32 3 32 1 rlinecurve
          -3 -63 -2 -64 -4 -61 rrcurveto
          -38 -21 -3 -3 -22 hvcurveto
          337 486 rmoveto
          166 42 -137 -85 -203 -128 -47 -65 -41 -41 8 8 -23 hvcurveto
          5 171 rlineto
          1 35 27 0 21 hhcurveto
          11 11 0 1 9 hvcurveto
          3 110 rlineto
          -113 hlineto
          6 170 rlineto
          3 16 31 0 28 hhcurveto
          endchar
        </CharString>
        <CharString name="Euro">
          242 26 338 rmoveto
          29 3 32 1 35 3 rrcurveto
          -24 vlineto
          -22 -98 vlineto
          -3 -100 35 4 40 1 41 3 rlinecurve
          -149 43 124 -78 157 hhcurveto
          77 78 21 21 53 hvcurveto
          -23 99 rlineto
          -11 -29 -45 -10 -51 hhcurveto
          -71 -81 32 81 -40 hvcurveto
          1 45 41 0 29 hhcurveto
          17 16 0 1 14 hvcurveto
          3 84 rlineto
          -191 hlineto
          -2 15 -1 17 18 vvcurveto
          2 vlineto
          138 3 rlineto
          58 hlineto
          4 84 rlineto
          -190 hlineto
          100 24 69 53 57 hhcurveto
          40 28 -16 -19 15 hvcurveto
          11 -104 rlineto
          107 hlineto
          8 219 rlineto
          13 -51 -54 15 -88 hhcurveto
          -159 -143 -88 -173 -40 hvcurveto
          -104 hlineto
          endchar
        </CharString>
        <CharString name="F">
          147 35 -3 rmoveto
          5 49 52 3 57 hhcurveto
          63 55 -3 -5 57 hvcurveto
          4 86 -83 56 2 134 194 -13 5 121 -196 -8 9 202 182 -18 13 -105 rlineto
          113 hlineto
          15 230 rlineto
          -7 -113 -112 -1 -85 hhcurveto
          -92 -87 0 8 -81 hvcurveto
          -4 -86 83 -56 rlineto
          -86 -7 -262 -8 -94 vhcurveto
          -13 -21 -2 -1 -17 hvcurveto
          -30 -3 rlineto
          endchar
        </CharString>
        <CharString name="G">
          294 661 452 rmoveto
          8 219 rlineto
          13 -59 -68 15 -96 hhcurveto
          -235 -174 -134 -237 -227 173 -121 224 66 108 21 21 61 hvcurveto
          8 241 rlineto
          19 19 2 1 16 hvcurveto
          27 3 4 95 rlineto
          -8 -69 -49 0 -54 hhcurveto
          -32 -39 1 3 -32 hvcurveto
          -55 4 -4 -86 85 -56 -4 -112 rlineto
          -15 -23 -32 -6 -37 hhcurveto
          -110 -92 100 156 170 102 76 88 61 34 -15 -19 24 hvcurveto
          14 -105 rlineto
          endchar
        </CharString>
        <CharString name="H">
          372 808 83 rmoveto
          -83 56 rlineto
          85 6 264 8 93 vhcurveto
          19 19 2 1 16 hvcurveto
          27 3 4 95 rlineto
          -8 -71 -68 0 -38 hhcurveto
          -65 -35 3 5 -56 hvcurveto
          -4 -86 83 -56 rlineto
          -29 -1 -50 -1 -56 vhcurveto
          -274 hlineto
          3 70 3 67 3 39 rrcurveto
          19 20 2 1 15 hvcurveto
          27 3 5 95 rlineto
          -8 -72 -68 0 -38 hhcurveto
          -66 -34 3 5 -55 hvcurveto
          -5 -86 83 -56 rlineto
          -86 -6 -262 -8 -94 vhcurveto
          -19 -20 -2 -1 -16 hvcurveto
          -26 -3 -4 -95 rlineto
          8 71 68 0 37 hhcurveto
          66 35 -3 -5 56 hvcurveto
          4 86 -83 56 rlineto
          32 1 53 1 61 vhcurveto
          8 112 109 1 53 hhcurveto
          -3 -78 -3 -76 -3 -42 rrcurveto
          -19 -20 -2 -1 -16 hvcurveto
          -26 -3 -5 -95 rlineto
          8 72 69 0 36 hhcurveto
          66 36 -3 -5 54 hvcurveto
          endchar
        </CharString>
        <CharString name="I">
          -63 372 83 rmoveto
          -83 56 rlineto
          85 6 264 8 93 vhcurveto
          19 20 2 1 15 hvcurveto
          27 3 5 95 rlineto
          -8 -72 -68 0 -38 hhcurveto
          -66 -34 3 5 -55 hvcurveto
          -5 -86 83 -56 rlineto
          -86 -6 -262 -8 -94 vhcurveto
          -19 -20 -2 -1 -16 hvcurveto
          -26 -3 -4 -95 rlineto
          8 71 68 0 37 hhcurveto
          66 35 -3 -5 56 hvcurveto
          endchar
        </CharString>
        <CharString name="Iacute">
          -63 372 83 rmoveto
          -83 56 rlineto
          85 6 264 8 93 vhcurveto
          19 20 2 1 15 hvcurveto
          27 3 5 95 rlineto
          -8 -72 -68 0 -38 hhcurveto
          -66 -34 3 5 -55 hvcurveto
          -5 -86 83 -56 rlineto
          -86 -6 -262 -8 -94 vhcurveto
          -19 -20 -2 -1 -16 hvcurveto
          -26 -3 -4 -95 rlineto
          8 71 68 0 37 hhcurveto
          66 35 -3 -5 56 hvcurveto
          -165 737 rmoveto
          190 121 -19 13 -41 56 -13 21 rlinecurve
          -159 -155 rlineto
          endchar
        </CharString>
        <CharString name="Icircumflex">
          -63 372 83 rmoveto
          -83 56 rlineto
          85 6 264 8 93 vhcurveto
          19 20 2 1 15 hvcurveto
          27 3 5 95 rlineto
          -8 -72 -68 0 -38 hhcurveto
          -66 -34 3 5 -55 hvcurveto
          -5 -86 83 -56 rlineto
          -86 -6 -262 -8 -94 vhcurveto
          -19 -20 -2 -1 -16 hvcurveto
          -26 -3 -4 -95 rlineto
          8 71 68 0 37 hhcurveto
          66 35 -3 -5 56 hvcurveto
          -133 818 rmoveto
          101 -81 51 50 -120 138 rlineto
          -60 hlineto
          -131 -138 49 -50 rlineto
          endchar
        </CharString>
        <CharString name="Idieresis">
          -63 372 83 rmoveto
          -83 56 rlineto
          85 6 264 8 93 vhcurveto
          19 20 2 1 15 hvcurveto
          27 3 5 95 rlineto
          -8 -72 -68 0 -38 hhcurveto
          -66 -34 3 5 -55 hvcurveto
          -5 -86 83 -56 rlineto
          -86 -6 -262 -8 -94 vhcurveto
          -19 -20 -2 -1 -16 hvcurveto
          -26 -3 -4 -95 rlineto
          8 71 68 0 37 hhcurveto
          66 35 -3 -5 56 hvcurveto
          -175 761 rmoveto
          7 0 7 1 9 vhcurveto
          15 1 20 3 25 vhcurveto
          -32 51 -102 -28 rlineto
          -7 0 -7 -1 -8 vhcurveto
          -15 -2 -19 -1 -25 vhcurveto
          32 -52 rlineto
          307 27 rmoveto
          23 vlineto
          1 15 1 20 3 25 -32 51 rcurveline
          -102 -28 rlineto
          -7 0 -7 -1 -8 vhcurveto
          -15 -2 -19 -1 -25 vhcurveto
          32 -52 rlineto
          endchar
        </CharString>
        <CharString name="Igrave">
          -63 372 83 rmoveto
          -83 56 rlineto
          85 6 264 8 93 vhcurveto
          19 20 2 1 15 hvcurveto
          27 3 5 95 rlineto
          -8 -72 -68 0 -38 hhcurveto
          -66 -34 3 5 -55 hvcurveto
          -5 -86 83 -56 rlineto
          -86 -6 -262 -8 -94 vhcurveto
          -19 -20 -2 -1 -16 hvcurveto
          -26 -3 -4 -95 rlineto
          8 71 68 0 37 hhcurveto
          66 35 -3 -5 56 hvcurveto
          -72 798 rmoveto
          -171 147 -14 -19 -37 -56 -16 -21 rlinecurve
          196 -112 rlineto
          endchar
        </CharString>
        <CharString name="J">
          -92 292 581 rmoveto
          19 19 2 1 16 hvcurveto
          27 3 3 95 rlineto
          -8 -70 -71 0 -35 hhcurveto
          -66 -35 3 5 -56 hvcurveto
          -3 -86 83 -56 rlineto
          -85 -6 -327 -16 -97 vhcurveto
          -8 -50 -38 -54 -38 -41 -22 -24 -24 -23 -26 -22 58 -91 rcurveline
          204 114 61 102 3 99 rrcurveto
          91 16 355 5 94 vhcurveto
          endchar
        </CharString>
        <CharString name="K">
          279 544 hmoveto
          203 hlineto
          3 83 -103 56 -167 245 139 157 105 47 5 94 rlineto
          -5 -39 -54 -3 -53 hhcurveto
          -61 -48 4 4 -29 hvcurveto
          -4 -95 21 -2 40 -3 -175 -227 -1 -33 rlineto
          46 -239 rmoveto
          -83 56 rlineto
          85 6 264 8 93 vhcurveto
          19 20 2 1 15 hvcurveto
          27 3 5 95 rlineto
          -8 -72 -68 0 -38 hhcurveto
          -66 -34 3 5 -55 hvcurveto
          -5 -86 83 -56 rlineto
          -86 -6 -262 -8 -94 vhcurveto
          -19 -20 -2 -1 -16 hvcurveto
          -26 -3 -4 -95 rlineto
          8 71 68 0 37 hhcurveto
          66 35 -3 -5 56 hvcurveto
          endchar
        </CharString>
        <CharString name="L">
          163 35 -3 rmoveto
          79 5 78 2 79 1 125 -1 107 -5 101 -9 29 244 rcurveline
          -127 hlineto
          -31 -111 -188 -14 12 327 0 92 4 53 rlinecurve
          7 9 0 1 9 hvcurveto
          15 20 1 4 21 hvcurveto
          5 95 rlineto
          -7 -67 -49 -1 -47 hhcurveto
          -59 -41 3 5 -70 hvcurveto
          -5 -86 83 -56 rlineto
          -86 -6 -262 -8 -94 vhcurveto
          -16 -20 -2 -1 -17 hvcurveto
          -28 -3 rlineto
          endchar
        </CharString>
        <CharString name="M">
          478 861 139 rmoveto
          -51 560 -160 -20 -157 -400 rlineto
          -20 hlineto
          -176 420 -136 -20 -72 -581 rlineto
          -21 -39 -3 -3 -21 hvcurveto
          -4 -95 rlineto
          4 41 49 4 53 hhcurveto
          53 52 -4 -4 44 hvcurveto
          4 86 -83 56 7 276 rlineto
          20 hlineto
          159 -388 rlineto
          98 hlineto
          153 388 rlineto
          20 hlineto
          25 -317 -24 -1 -22 -1 -35 -4 rlinecurve
          -4 -95 rlineto
          5 49 60 3 63 hhcurveto
          61 47 -4 -4 43 hvcurveto
          3 86 rlineto
          endchar
        </CharString>
        <CharString name="N">
          323 230 139 rmoveto
          -11 272 18 3 353 -434 101 21 rlineto
          80 0 70 5 121 vhcurveto
          12 310 rlineto
          21 26 1 4 23 hvcurveto
          4 95 rlineto
          -5 -43 -47 -3 -53 hhcurveto
          -53 -54 4 5 -43 hvcurveto
          -4 -86 93 -56 10 -273 -18 -3 -354 434 -97 -20 rlineto
          -33 vlineto
          -59 -2 -74 -4 -101 vhcurveto
          -11 -314 rlineto
          -23 -28 -3 -3 -21 hvcurveto
          -4 -95 rlineto
          4 41 48 4 53 hhcurveto
          53 54 -4 -4 44 hvcurveto
          4 86 rlineto
          endchar
        </CharString>
        <CharString name="Ntilde">
          323 230 139 rmoveto
          -11 272 18 3 353 -434 101 21 rlineto
          80 0 70 5 121 vhcurveto
          12 310 rlineto
          21 26 1 4 23 hvcurveto
          4 95 rlineto
          -5 -43 -47 -3 -53 hhcurveto
          -53 -54 4 5 -43 hvcurveto
          -4 -86 93 -56 10 -273 -18 -3 -354 434 -97 -20 rlineto
          -33 vlineto
          -59 -2 -74 -4 -101 vhcurveto
          -11 -314 rlineto
          -23 -28 -3 -3 -21 hvcurveto
          -4 -95 rlineto
          4 41 48 4 53 hhcurveto
          53 54 -4 -4 44 hvcurveto
          4 86 rlineto
          214 655 rmoveto
          106 115 -48 49 -66 -57 -42 13 -27 13 -41 22 rlinecurve
          -44 hlineto
          -100 -111 43 -51 70 60 31 -19 33 -18 43 -16 rlinecurve
          endchar
        </CharString>
        <CharString name="O">
          37 336 rmoveto
          -194 112 -162 242 201 155 170 204 182 -117 163 -216 -230 -147 -161 -202 vhcurveto
          349 255 rmoveto
          112 69 -125 -144 -112 -55 -121 -116 -111 -70 123 147 108 55 124 116 hvcurveto
          endchar
        </CharString>
        <CharString name="OE">
          590 372 591 rmoveto
          108 59 -125 -147 -113 -47 -117 -110 -107 -60 120 148 108 47 126 110 hvcurveto
          -335 -255 rmoveto
          -194 112 -162 229 37 38 8 12 33 vhcurveto
          1 37 53 4 77 hhcurveto
          124 116 -6 -9 108 hvcurveto
          29 244 rlineto
          -117 hlineto
          -32 -111 -197 -14 3 184 194 -13 5 121 -195 -8 8 182 192 -19 13 -104 rlineto
          113 hlineto
          15 230 rlineto
          -7 -115 -113 -1 -87 hhcurveto
          -89 -64 0 3 -44 hvcurveto
          15 -37 -36 7 -47 hhcurveto
          -219 -144 -161 -202 hvcurveto
          endchar
        </CharString>
        <CharString name="Oacute">
          37 336 rmoveto
          -194 112 -162 242 201 155 170 204 182 -117 163 -216 -230 -147 -161 -202 vhcurveto
          349 255 rmoveto
          112 69 -125 -144 -112 -55 -121 -116 -111 -70 123 147 108 55 124 116 hvcurveto
          -1 143 rmoveto
          190 121 -19 13 -41 56 -13 21 rlinecurve
          -159 -155 rlineto
          endchar
        </CharString>
        <CharString name="Ocircumflex">
          37 336 rmoveto
          -194 112 -162 242 201 155 170 204 182 -117 163 -216 -230 -147 -161 -202 vhcurveto
          349 255 rmoveto
          112 69 -125 -144 -112 -55 -121 -116 -111 -70 123 147 108 55 124 116 hvcurveto
          26 224 rmoveto
          101 -81 51 50 -120 138 rlineto
          -60 hlineto
          -131 -138 49 -50 rlineto
          endchar
        </CharString>
        <CharString name="Odieresis">
          37 336 rmoveto
          -194 112 -162 242 201 155 170 204 182 -117 163 -216 -230 -147 -161 -202 vhcurveto
          349 255 rmoveto
          112 69 -125 -144 -112 -55 -121 -116 -111 -70 123 147 108 55 124 116 hvcurveto
          -6 167 rmoveto
          7 0 7 1 9 vhcurveto
          15 1 20 3 25 vhcurveto
          -32 51 -102 -28 rlineto
          -7 0 -7 -1 -8 vhcurveto
          -15 -2 -19 -1 -25 vhcurveto
          32 -52 rlineto
          307 27 rmoveto
          23 vlineto
          1 15 1 20 3 25 -32 51 rcurveline
          -102 -28 rlineto
          -7 0 -7 -1 -8 vhcurveto
          -15 -2 -19 -1 -25 vhcurveto
          32 -52 rlineto
          endchar
        </CharString>
        <CharString name="Ograve">
          37 336 rmoveto
          -194 112 -162 242 201 155 170 204 182 -117 163 -216 -230 -147 -161 -202 vhcurveto
          349 255 rmoveto
          112 69 -125 -144 -112 -55 -121 -116 -111 -70 123 147 108 55 124 116 hvcurveto
          92 204 rmoveto
          -171 147 -14 -19 -37 -56 -16 -21 rlinecurve
          196 -112 rlineto
          endchar
        </CharString>
        <CharString name="Oslash">
          37 336 rmoveto
          -116 39 -104 83 -64 vhcurveto
          -68 -103 60 -41 70 106 rlineto
          -21 47 56 -13 67 hhcurveto
          201 155 170 204 107 -41 100 -77 64 hvcurveto
          58 87 -62 43 -59 -88 rlineto
          20 -43 -50 12 -59 hhcurveto
          -230 -147 -161 -202 hvcurveto
          349 255 rmoveto
          40 34 -16 -27 28 hvcurveto
          -237 -357 rlineto
          -24 48 -12 57 63 vvcurveto
          108 55 124 116 vhcurveto
          181 -269 rmoveto
          -112 -55 -121 -116 -39 -32 15 24 -27 vhcurveto
          236 354 rlineto
          21 -45 12 -56 -59 vvcurveto
          endchar
        </CharString>
        <CharString name="Otilde">
          37 336 rmoveto
          -194 112 -162 242 201 155 170 204 182 -117 163 -216 -230 -147 -161 -202 vhcurveto
          349 255 rmoveto
          112 69 -125 -144 -112 -55 -121 -116 -111 -70 123 147 108 55 124 116 hvcurveto
          101 147 rmoveto
          106 115 -48 49 -66 -57 -42 13 -27 13 -41 22 rlinecurve
          -44 hlineto
          -100 -111 43 -51 70 60 31 -19 33 -18 43 -16 rlinecurve
          endchar
        </CharString>
        <CharString name="P">
          163 52 596 rmoveto
          83 -56 rlineto
          -86 -7 -262 -8 -94 vhcurveto
          -19 -20 -2 -1 -16 hvcurveto
          -26 -3 -4 -95 rlineto
          8 71 68 0 38 hhcurveto
          66 34 -3 -5 56 hvcurveto
          4 86 -83 56 rlineto
          103 6 235 8 95 vhcurveto
          1 8 13 1 11 hhcurveto
          75 46 -36 -68 -67 -42 -39 -52 -8 -4 -1 3 -12 hvcurveto
          -5 -106 rlineto
          -4 17 17 -2 19 hhcurveto
          113 135 75 151 126 -86 77 -163 hvcurveto
          -66 -47 -9 -85 hhcurveto
          -43 -43 4 4 -45 hvcurveto
          endchar
        </CharString>
        <CharString name="Q">
          37 178 352 180 vstem
          292 -152 rmoveto
          -32 52 130 -106 87 hhcurveto
          52 16 50 37 39 43 -38 80 rcurveline
          -91 -34 rlineto
          21 -58 -134 78 -76 hhcurveto
          -33 -57 -17 -24 -45 hvcurveto
          28 -89 rlineto
          -161 515 rmoveto
          -194 112 -162 242 201 155 170 204 182 -117 163 -216 -230 -147 -161 -202 vhcurveto
          349 255 rmoveto
          112 69 -125 -144 -112 -55 -121 -116 -111 -70 123 147 108 55 124 116 hvcurveto
          endchar
        </CharString>
        <CharString name="R">
          236 490 hmoveto
          213 hlineto
          4 83 -103 56 -89 159 rlineto
          70 31 49 60 90 vvcurveto
          126 -86 78 -164 vhcurveto
          -65 -66 -9 -56 hhcurveto
          -47 -43 4 4 -51 hvcurveto
          -4 -86 83 -56 rlineto
          -86 -7 -262 -8 -94 vhcurveto
          -19 -20 -2 -1 -16 hvcurveto
          -26 -3 -4 -95 rlineto
          8 71 56 0 37 hhcurveto
          66 48 -3 -5 55 hvcurveto
          4 86 -82 56 rlineto
          28 1 45 1 51 vhcurveto
          9 14 -1 15 hhcurveto
          7 7 0 1 7 hvcurveto
          -45 310 rmoveto
          1 8 10 0 9 hhcurveto
          68 56 -29 -75 -71 -47 -35 -80 -13 -11 1 1 -11 hvcurveto
          3 81 5 81 3 45 rrcurveto
          endchar
        </CharString>
        <CharString name="S">
          130 53 227 rmoveto
          -7 -219 rlineto
          -16 59 94 -12 88 hhcurveto
          208 76 107 94 106 -81 57 -83 43 hvcurveto
          -85 45 rlineto
          -51 27 -38 30 40 vvcurveto
          39 33 19 51 37 38 -10 -20 28 vhcurveto
          14 -105 rlineto
          113 hlineto
          14 219 rlineto
          16 -58 -92 12 -89 hhcurveto
          -215 -51 -109 -97 -101 72 -56 80 -43 hvcurveto
          95 -51 rlineto
          56 -29 35 -26 -37 vvcurveto
          -40 -43 -18 -57 -49 -42 14 11 -22 vhcurveto
          -15 110 rlineto
          endchar
        </CharString>
        <CharString name="Scaron">
          130 53 227 rmoveto
          -7 -219 rlineto
          -16 59 94 -12 88 hhcurveto
          208 76 107 94 106 -81 57 -83 43 hvcurveto
          -85 45 rlineto
          -51 27 -38 30 40 vvcurveto
          39 33 19 51 37 38 -10 -20 28 vhcurveto
          14 -105 rlineto
          113 hlineto
          14 219 rlineto
          16 -58 -92 12 -89 hhcurveto
          -215 -51 -109 -97 -101 72 -56 80 -43 hvcurveto
          95 -51 rlineto
          56 -29 35 -26 -37 vvcurveto
          -40 -43 -18 -57 -49 -42 14 11 -22 vhcurveto
          -15 110 rlineto
          166 614 rmoveto
          -101 81 -51 -49 120 -139 rlineto
          60 hlineto
          131 139 -49 49 rlineto
          endchar
        </CharString>
        <CharString name="T">
          194 575 107 hstem
          522 541 rmoveto
          13 -89 rlineto
          124 hlineto
          15 233 rlineto
          -11 -119 -84 0 -154 hhcurveto
          -63 -71 1 3 -55 hvcurveto
          -94 4 -7 -230 rlineto
          124 hlineto
          16 123 96 -8 rlineto
          -82 vlineto
          -87 -10 -186 -4 -114 vhcurveto
          -19 -20 -2 -1 -16 hvcurveto
          -27 -3 -3 -95 rlineto
          8 71 53 0 45 hhcurveto
          47 40 -3 -1 29 hvcurveto
          48 -4 3 86 -83 56 3 180 3 137 7 93 rlinecurve
          endchar
        </CharString>
        <CharString name="Thorn">
          144 120 97 rmoveto
          -19 -20 -2 -1 -16 hvcurveto
          -26 -3 -4 -94 rlineto
          8 71 58 0 36 hhcurveto
          66 48 -3 -5 55 hvcurveto
          4 85 -83 56 1 104 1 96 5 80 rlinecurve
          1 7 12 1 12 hhcurveto
          67 34 -22 -48 -55 -25 -25 -48 -7 -8 1 1 -9 hvcurveto
          -5 -114 rlineto
          -4 16 20 -2 17 hhcurveto
          107 120 64 145 113 -72 65 -156 -25 -27 0 -3 -25 hvcurveto
          1 45 rlineto
          19 20 2 1 16 hvcurveto
          27 3 4 95 rlineto
          -8 -71 -70 0 -36 hhcurveto
          -66 -34 3 5 -56 hvcurveto
          -4 -86 83 -56 -3 -144 1 -162 -13 -137 rlinecurve
          endchar
        </CharString>
        <CharString name="U">
          296 697 581 rmoveto
          22 3 38 0 21 3 4 95 rcurveline
          -5 -43 -55 -3 -57 hhcurveto
          -57 -53 3 5 -43 hvcurveto
          -4 -86 83 -56 -4 -390 rlineto
          -32 -24 -42 -29 -69 hhcurveto
          -83 -64 47 115 31 2 104 8 195 hvcurveto
          24 1 24 0 33 4 4 96 rcurveline
          -5 -48 -59 -3 -51 hhcurveto
          -52 -41 1 3 -31 hvcurveto
          -47 4 -4 -86 83 -56 rlineto
          -8 -162 -2 -143 -16 vvcurveto
          -146 106 -92 170 183 94 95 173 15 vhcurveto
          endchar
        </CharString>
        <CharString name="Uacute">
          296 697 581 rmoveto
          22 3 38 0 21 3 4 95 rcurveline
          -5 -43 -55 -3 -57 hhcurveto
          -57 -53 3 5 -43 hvcurveto
          -4 -86 83 -56 -4 -390 rlineto
          -32 -24 -42 -29 -69 hhcurveto
          -83 -64 47 115 31 2 104 8 195 hvcurveto
          24 1 24 0 33 4 4 96 rcurveline
          -5 -48 -59 -3 -51 hhcurveto
          -52 -41 1 3 -31 hvcurveto
          -47 4 -4 -86 83 -56 rlineto
          -8 -162 -2 -143 -16 vvcurveto
          -146 106 -92 170 183 94 95 173 15 vhcurveto
          -278 485 rmoveto
          190 121 -19 13 -41 56 -13 21 rlinecurve
          -159 -155 rlineto
          endchar
        </CharString>
        <CharString name="Ucircumflex">
          296 697 581 rmoveto
          22 3 38 0 21 3 4 95 rcurveline
          -5 -43 -55 -3 -57 hhcurveto
          -57 -53 3 5 -43 hvcurveto
          -4 -86 83 -56 -4 -390 rlineto
          -32 -24 -42 -29 -69 hhcurveto
          -83 -64 47 115 31 2 104 8 195 hvcurveto
          24 1 24 0 33 4 4 96 rcurveline
          -5 -48 -59 -3 -51 hhcurveto
          -52 -41 1 3 -31 hvcurveto
          -47 4 -4 -86 83 -56 rlineto
          -8 -162 -2 -143 -16 vvcurveto
          -146 106 -92 170 183 94 95 173 15 vhcurveto
          -238 566 rmoveto
          101 -81 51 50 -120 138 rlineto
          -60 hlineto
          -131 -138 49 -50 rlineto
          endchar
        </CharString>
        <CharString name="Udieresis">
          296 697 581 rmoveto
          22 3 38 0 21 3 4 95 rcurveline
          -5 -43 -55 -3 -57 hhcurveto
          -57 -53 3 5 -43 hvcurveto
          -4 -86 83 -56 -4 -390 rlineto
          -32 -24 -42 -29 -69 hhcurveto
          -83 -64 47 115 31 2 104 8 195 hvcurveto
          24 1 24 0 33 4 4 96 rcurveline
          -5 -48 -59 -3 -51 hhcurveto
          -52 -41 1 3 -31 hvcurveto
          -47 4 -4 -86 83 -56 rlineto
          -8 -162 -2 -143 -16 vvcurveto
          -146 106 -92 170 183 94 95 173 15 vhcurveto
          -274 509 rmoveto
          7 0 7 1 9 vhcurveto
          15 1 20 3 25 vhcurveto
          -32 51 -102 -28 rlineto
          -7 0 -7 -1 -8 vhcurveto
          -15 -2 -19 -1 -25 vhcurveto
          32 -52 rlineto
          307 27 rmoveto
          23 vlineto
          1 15 1 20 3 25 -32 51 rcurveline
          -102 -28 rlineto
          -7 0 -7 -1 -8 vhcurveto
          -15 -2 -19 -1 -25 vhcurveto
          32 -52 rlineto
          endchar
        </CharString>
        <CharString name="Ugrave">
          296 697 581 rmoveto
          22 3 38 0 21 3 4 95 rcurveline
          -5 -43 -55 -3 -57 hhcurveto
          -57 -53 3 5 -43 hvcurveto
          -4 -86 83 -56 -4 -390 rlineto
          -32 -24 -42 -29 -69 hhcurveto
          -83 -64 47 115 31 2 104 8 195 hvcurveto
          24 1 24 0 33 4 4 96 rcurveline
          -5 -48 -59 -3 -51 hhcurveto
          -52 -41 1 3 -31 hvcurveto
          -47 4 -4 -86 83 -56 rlineto
          -8 -162 -2 -143 -16 vvcurveto
          -146 106 -92 170 183 94 95 173 15 vhcurveto
          -165 546 rmoveto
          -171 147 -14 -19 -37 -56 -16 -21 rlinecurve
          196 -112 rlineto
          endchar
        </CharString>
        <CharString name="V">
          231 254 581 rmoveto
          24 1 22 1 35 4 4 95 rcurveline
          -5 -49 -61 -3 -65 hhcurveto
          -61 -55 4 4 -43 hvcurveto
          -5 -86 83 -56 212 -560 125 20 258 582 22 2 7 0 22 3 rlinecurve
          4 95 rlineto
          -5 -42 -37 -3 -54 hhcurveto
          -55 -44 3 5 -43 hvcurveto
          -4 -86 65 -55 -122 -359 rlineto
          -20 hlineto
          endchar
        </CharString>
        <CharString name="W">
          505 710 224 rmoveto
          -16 hlineto
          -106 391 -113 -18 -119 -370 rlineto
          -20 hlineto
          -67 354 23 1 23 1 25 4 rlinecurve
          4 95 rlineto
          -4 -49 -54 -4 -65 hhcurveto
          -61 -58 4 4 -43 hvcurveto
          -4 -86 83 -56 156 -560 138 20 109 289 rlineto
          15 hlineto
          81 -310 134 21 230 581 22 3 9 -3 20 6 rlinecurve
          4 95 rlineto
          -5 -41 -36 -3 -53 hhcurveto
          -56 -51 3 5 -43 hvcurveto
          -4 -86 65 -55 rlineto
          endchar
        </CharString>
        <CharString name="X">
          284 698 582 rmoveto
          23 3 5 -1 19 3 4 95 rcurveline
          -5 -43 -60 -3 -63 hhcurveto
          -63 -61 3 5 -43 hvcurveto
          -4 -86 73 -56 -79 -99 -114 140 21 1 29 0 19 3 rlinecurve
          4 97 rlineto
          -4 -49 -56 -4 -63 hhcurveto
          -60 -51 4 4 -43 hvcurveto
          -4 -86 75 -56 183 -221 -220 -222 -21 -1 -16 -1 -17 -3 rlinecurve
          -3 -95 rlineto
          4 41 54 4 65 hhcurveto
          64 59 -4 -4 45 hvcurveto
          4 86 -65 56 76 101 119 -142 -20 -1 -30 -2 -19 -3 rlinecurve
          -4 -95 rlineto
          4 49 58 4 63 hhcurveto
          60 49 -4 -4 43 hvcurveto
          4 86 -83 56 -182 223 rlineto
          endchar
        </CharString>
        <CharString name="Y">
          223 259 581 rmoveto
          24 1 22 1 35 4 5 95 rcurveline
          -4 -49 -55 -4 -65 hhcurveto
          -61 -61 4 4 -43 hvcurveto
          -5 -87 78 -55 188 -309 -3 -49 -1 -56 -3 -28 rlinecurve
          -19 -20 -2 -1 -16 hvcurveto
          -26 -3 -3 -95 rlineto
          8 71 50 0 47 hhcurveto
          41 41 -3 -1 31 hvcurveto
          50 -4 3 86 -83 56 rlineto
          21 2 46 40 vvcurveto
          234 336 21 3 10 -2 21 5 rlinecurve
          4 94 rlineto
          -5 -43 -52 -3 -55 hhcurveto
          -55 -44 3 5 -43 hvcurveto
          -4 -87 65 -55 -97 -166 rlineto
          -19 hlineto
          endchar
        </CharString>
        <CharString name="Yacute">
          223 259 581 rmoveto
          24 1 22 1 35 4 5 95 rcurveline
          -4 -49 -55 -4 -65 hhcurveto
          -61 -61 4 4 -43 hvcurveto
          -5 -87 78 -55 188 -309 -3 -49 -1 -56 -3 -28 rlinecurve
          -19 -20 -2 -1 -16 hvcurveto
          -26 -3 -3 -95 rlineto
          8 71 50 0 47 hhcurveto
          41 41 -3 -1 31 hvcurveto
          50 -4 3 86 -83 56 rlineto
          21 2 46 40 vvcurveto
          234 336 21 3 10 -2 21 5 rlinecurve
          4 94 rlineto
          -5 -43 -52 -3 -55 hhcurveto
          -55 -44 3 5 -43 hvcurveto
          -4 -87 65 -55 -97 -166 rlineto
          -19 hlineto
          -29 360 rmoveto
          190 121 -19 13 -41 56 -13 21 rlinecurve
          -159 -155 rlineto
          endchar
        </CharString>
        <CharString name="Ydieresis">
          223 259 581 rmoveto
          24 1 22 1 35 4 5 95 rcurveline
          -4 -49 -55 -4 -65 hhcurveto
          -61 -61 4 4 -43 hvcurveto
          -5 -87 78 -55 188 -309 -3 -49 -1 -56 -3 -28 rlinecurve
          -19 -20 -2 -1 -16 hvcurveto
          -26 -3 -3 -95 rlineto
          8 71 50 0 47 hhcurveto
          41 41 -3 -1 31 hvcurveto
          50 -4 3 86 -83 56 rlineto
          21 2 46 40 vvcurveto
          234 336 21 3 10 -2 21 5 rlinecurve
          4 94 rlineto
          -5 -43 -52 -3 -55 hhcurveto
          -55 -44 3 5 -43 hvcurveto
          -4 -87 65 -55 -97 -166 rlineto
          -19 hlineto
          -24 384 rmoveto
          7 0 7 1 9 vhcurveto
          15 1 20 3 25 vhcurveto
          -32 51 -102 -28 rlineto
          -7 0 -7 -1 -8 vhcurveto
          -15 -2 -19 -1 -25 vhcurveto
          32 -52 rlineto
          307 27 rmoveto
          23 vlineto
          1 15 1 20 3 25 -32 51 rcurveline
          -102 -28 rlineto
          -7 0 -7 -1 -8 vhcurveto
          -15 -2 -19 -1 -25 vhcurveto
          32 -52 rlineto
          endchar
        </CharString>
        <CharString name="Z">
          191 -1 126 hstem
          637 234 rmoveto
          -146 hlineto
          -33 -109 -217 -16 385 456 7 117 rlineto
          -5 -99 -87 -3 -95 hhcurveto
          -96 -89 3 5 -97 hvcurveto
          -9 -244 rlineto
          126 hlineto
          18 119 211 14 -382 -467 -4 -105 rlineto
          1 39 37 0 39 hhcurveto
          127 112 -7 -4 87 hvcurveto
          137 -8 rlineto
          endchar
        </CharString>
        <CharString name="Zcaron">
          191 -1 126 hstemhm
          hintmask 10000000
          637 234 rmoveto
          -146 hlineto
          -33 -109 -217 -16 385 456 7 117 rlineto
          -5 -99 -87 -3 -95 hhcurveto
          -96 -89 3 5 -97 hvcurveto
          -9 -244 rlineto
          126 hlineto
          18 119 211 14 -382 -467 -4 -105 rlineto
          1 39 37 0 39 hhcurveto
          127 112 -7 -4 87 hvcurveto
          137 -8 rlineto
          -255 860 rmoveto
          -101 81 -51 -49 120 -139 rlineto
          60 hlineto
          131 139 -49 49 rlineto
          endchar
        </CharString>
        <CharString name="a">
          45 355 97 hstem
          298 138 rmoveto
          -24 -94 36 -58 rlineto
          33 129 39 40 55 hvcurveto
          -26 77 -24 -8 -30 -7 -19 -1 rlinecurve
          5 108 -1 82 11 110 rrcurveto
          17 -59 -57 9 -51 hhcurveto
          -131 -122 -152 -205 -20 4 -40 8 -21 hvcurveto
          88 -28 58 18 62 65 48 72 rlinecurve
          9 180 rmoveto
          -95 -4 -92 -73 -33 hhcurveto
          -1 11 0 10 11 vvcurveto
          93 35 77 55 13 16 -2 -4 12 vhcurveto
          endchar
        </CharString>
        <CharString name="aacute">
          45 355 97 hstem
          298 138 rmoveto
          -24 -94 36 -58 rlineto
          33 129 39 40 55 hvcurveto
          -26 77 -24 -8 -30 -7 -19 -1 rlinecurve
          5 108 -1 82 11 110 rrcurveto
          17 -59 -57 9 -51 hhcurveto
          -131 -122 -152 -205 -20 4 -40 8 -21 hvcurveto
          88 -28 58 18 62 65 48 72 rlinecurve
          9 180 rmoveto
          -95 -4 -92 -73 -33 hhcurveto
          -1 11 0 10 11 vvcurveto
          93 35 77 55 13 16 -2 -4 12 vhcurveto
          -35 184 rmoveto
          161 158 -21 10 -52 45 -18 18 rlinecurve
          -123 -185 rlineto
          endchar
        </CharString>
        <CharString name="acircumflex">
          45 90 0 97 195 endchar
        </CharString>
        <CharString name="acute">
          -198 93 533 rmoveto
          161 158 -21 10 -52 45 -18 18 rlinecurve
          -123 -185 rlineto
          endchar
        </CharString>
        <CharString name="acute.case">
          -158 234 734 rmoveto
          190 121 -19 13 -41 56 -13 21 rlinecurve
          -159 -155 rlineto
          endchar
        </CharString>
        <CharString name="adieresis">
          45 97 0 97 200 endchar
        </CharString>
        <CharString name="ae">
          171 618 412 rmoveto
          37 -45 -65 3 -26 hhcurveto
          -29 -26 -5 -11 -24 hvcurveto
          9 -39 -39 7 -49 hhcurveto
          -131 -122 -152 -205 -20 4 -40 8 -21 hvcurveto
          88 -28 44 13 44 40 40 48 rlinecurve
          5 -25 11 -25 13 -23 88 -28 rcurveline
          57 4 134 42 52 36 -28 81 rcurveline
          -49 -15 -87 -18 -48 -3 -3 11 -3 21 -3 10 65 19 56 25 39 20 23 12 21 12 19 12 rrcurveto
          -442 -102 rmoveto
          -1 11 0 10 11 vvcurveto
          93 35 77 55 13 16 -2 -4 12 vhcurveto
          -29 -43 -19 -49 -7 -52 -27 -32 -31 -19 -17 -1 rrcurveto
          332 179 rmoveto
          -8 -10 -9 -10 -11 -9 -20 -16 -28 -20 -40 -17 3 43 11 37 20 19 rrcurveto
          1 4 4 0 4 hhcurveto
          24 29 -10 -8 17 hvcurveto
          endchar
        </CharString>
        <CharString name="agrave">
          45 130 0 97 193 endchar
        </CharString>
        <CharString name="ampersand">
          155 321 216 rmoveto
          50 -7 -11 -53 -16 -35 -20 -21 rlinecurve
          -86 hlineto
          -19 32 -12 39 39 vvcurveto
          63 34 62 85 16 vhcurveto
          5 78 rlineto
          -51 21 -33 54 56 vvcurveto
          10 1 10 2 10 vhcurveto
          10 hlineto
          28 30 -6 -8 21 hvcurveto
          11 -79 rlineto
          112 hlineto
          7 160 rlineto
          37 -48 -54 5 -38 hhcurveto
          -157 -61 -99 -75 -70 35 -44 31 -26 hvcurveto
          -69 -32 -69 -65 -106 vvcurveto
          -134 95 -68 126 136 84 100 115 40 vhcurveto
          -1 31 31 0 43 hhcurveto
          4 141 rlineto
          -19 -83 -73 -7 -79 hhcurveto
          -23 -23 1 1 -24 hvcurveto
          endchar
        </CharString>
        <CharString name="aring">
          45 355 97 hstem
          298 138 rmoveto
          -24 -94 36 -58 rlineto
          33 129 39 40 55 hvcurveto
          -26 77 -24 -8 -30 -7 -19 -1 rlinecurve
          5 108 -1 82 11 110 rrcurveto
          17 -59 -57 9 -51 hhcurveto
          -131 -122 -152 -205 -20 4 -40 8 -21 hvcurveto
          88 -28 58 18 62 65 48 72 rlinecurve
          9 180 rmoveto
          -95 -4 -92 -73 -33 hhcurveto
          -1 11 0 10 11 vvcurveto
          93 35 77 55 13 16 -2 -4 12 vhcurveto
          -13 354 rmoveto
          36 13 -32 -23 -35 -17 -19 -31 -35 -15 30 24 31 17 24 32 hvcurveto
          -125 -63 rmoveto
          -52 30 -55 84 74 62 56 73 54 -35 48 -78 -84 -53 -59 -65 vhcurveto
          endchar
        </CharString>
        <CharString name="asciicircum">
          -43 220 562 rmoveto
          86 -134 rlineto
          103 hlineto
          -161 251 rlineto
          -57 hlineto
          -161 -251 rlineto
          104 hlineto
          endchar
        </CharString>
        <CharString name="asciitilde">
          -45 298 212 rmoveto
          106 115 -48 49 -65 -57 -41 13 -30 14 -39 21 rlinecurve
          -45 hlineto
          -99 -111 43 -51 69 60 35 -19 26 -18 46 -16 rlinecurve
          endchar
        </CharString>
        <CharString name="asterisk">
          -24 155 496 rmoveto
          -133 -59 43 -81 121 83 -21 -142 rlineto
          8 31 1 8 9 28 -1 9 hhcurveto
          -3 44 -4 51 -1 49 112 -86 rcurveline
          10 15 29 50 12 14 -39 19 -44 23 -43 20 131 57 rcurveline
          -19 29 -12 24 -12 28 -34 -23 -49 -35 -38 -24 19 144 rcurveline
          -4 -27 -10 1 -9 hhcurveto
          -11 -11 0 3 -27 hvcurveto
          10 -142 -114 82 -12 -27 -14 -23 -23 -31 rlinecurve
          endchar
        </CharString>
        <CharString name="at">
          270 536 121 rmoveto
          3 88 0 85 7 91 rrcurveto
          13 -44 -53 8 -41 hhcurveto
          -99 -105 -124 -169 -19 5 -28 5 -19 hvcurveto
          73 -24 48 16 52 62 40 58 rlinecurve
          5 -3 -21 -85 30 -48 rlineto
          152 119 106 156 170 -118 104 -175 -220 -170 -162 -217 -196 155 -140 194 83 82 23 51 93 hvcurveto
          -23 52 rlineto
          -38 -81 -60 -19 -76 hhcurveto
          -181 -91 118 160 175 128 129 160 156 71 -103 -107 -83 -39 -68 -64 -13 hvcurveto
          -98 186 rmoveto
          -97 -10 -79 -81 -33 hhcurveto
          -1 11 0 9 11 vvcurveto
          96 30 86 53 13 16 -3 -3 12 vhcurveto
          endchar
        </CharString>
        <CharString name="atilde">
          45 355 97 hstem
          298 138 rmoveto
          -24 -94 36 -58 rlineto
          33 129 39 40 55 hvcurveto
          -26 77 -24 -8 -30 -7 -19 -1 rlinecurve
          5 108 -1 82 11 110 rrcurveto
          17 -59 -57 9 -51 hhcurveto
          -131 -122 -152 -205 -20 4 -40 8 -21 hvcurveto
          88 -28 58 18 62 65 48 72 rlinecurve
          9 180 rmoveto
          -95 -4 -92 -73 -33 hhcurveto
          -1 11 0 10 11 vvcurveto
          93 35 77 55 13 16 -2 -4 12 vhcurveto
          60 191 rmoveto
          106 115 -48 49 -66 -57 -43 13 -27 13 -40 22 rlinecurve
          -44 hlineto
          -100 -111 43 -51 70 60 32 -17 32 -20 43 -16 rlinecurve
          endchar
        </CharString>
        <CharString name="b">
          10 39 12 rmoveto
          -16 52 63 -10 50 hhcurveto
          141 119 146 148 33 -9 66 -24 45 hvcurveto
          -88 28 -57 -27 -48 -41 -44 -59 rlinecurve
          -7 4 41 383 -36 58 -205 -60 8 -83 rlineto
          13 31 1 3 28 hvcurveto
          -11 2 -45 -21 vvcurveto
          -133 -18 -332 -12 -77 vhcurveto
          162 148 rmoveto
          3 84 70 46 32 5 rrcurveto
          5 -8 7 -37 -34 vvcurveto
          -52 -29 -81 -51 -12 -15 2 4 -11 vhcurveto
          endchar
        </CharString>
        <CharString name="backslash">
          84 110 719 rmoveto
          -104 hlineto
          431 -893 rlineto
          104 hlineto
          endchar
        </CharString>
        <CharString name="bar">
          -220 82 -196 rmoveto
          98 955 -98 hlineto
          endchar
        </CharString>
        <CharString name="braceleft">
          -132 160 257 rmoveto
          87 50 9 91 77 vvcurveto
          102 5 21 8 21 vhcurveto
          69 35 -21 70 rlineto
          -158 -32 -46 -90 -105 vvcurveto
          -101 -6 -29 -11 -35 vhcurveto
          -73 -31 -2 -84 70 -35 rlineto
          7 -20 3 -20 -36 -40 -6 -40 -32 vvcurveto
          -95 45 -80 144 -29 vhcurveto
          26 70 -68 35 rlineto
          -4 12 -2 13 29 47 6 42 44 vvcurveto
          67 -15 67 -67 41 vhcurveto
          endchar
        </CharString>
        <CharString name="braceright">
          -134 187 257 rmoveto
          -88 -51 -8 -90 -77 vvcurveto
          -100 -4 -24 -8 -20 vhcurveto
          -70 -35 21 -70 rlineto
          156 32 48 90 105 vvcurveto
          101 6 30 11 34 vhcurveto
          73 31 2 84 -70 35 rlineto
          -5 21 -4 20 36 39 5 35 36 vvcurveto
          95 -44 80 -145 30 vhcurveto
          -25 -70 67 -35 rlineto
          3 -12 3 -14 -29 -47 -6 -42 -43 vvcurveto
          -66 15 -69 67 -40 vhcurveto
          endchar
        </CharString>
        <CharString name="bracketleft">
          -146 300 -90 rmoveto
          -111 hlineto
          26 725 rlineto
          111 hlineto
          1 84 rlineto
          -231 hlineto
          -31 -893 rlineto
          231 hlineto
          endchar
        </CharString>
        <CharString name="bracketright">
          -144 11 -90 rmoveto
          -3 -84 rlineto
          233 hlineto
          32 893 rlineto
          -233 hlineto
          -3 -84 rlineto
          111 hlineto
          -25 -725 rlineto
          endchar
        </CharString>
        <CharString name="brokenbar">
          -211 86 419 rmoveto
          99 340 -99 hlineto
          -955 vmoveto
          99 340 -99 hlineto
          endchar
        </CharString>
        <CharString name="bullet">
          -173 45 339 rmoveto
          -55 44 -44 56 55 43 44 55 55 -43 44 -55 -56 -44 -44 -55 vhcurveto
          endchar
        </CharString>
        <CharString name="c">
          -83 181 103 rmoveto
          -8 24 -4 29 31 vvcurveto
          55 13 57 25 39 vhcurveto
          38 -5 57 -22 41 -27 38 149 rcurveline
          11 -35 -29 8 -35 hhcurveto
          -159 -99 -159 -146 -48 11 -46 23 -39 hvcurveto
          88 -28 56 3 114 39 50 37 rlinecurve
          -25 71 -44 -15 -81 -15 -35 -3 rlinecurve
          endchar
        </CharString>
        <CharString name="caron">
          -91 192 640 rmoveto
          -101 99 -51 -50 120 -156 rlineto
          60 hlineto
          131 156 -49 50 rlineto
          endchar
        </CharString>
        <CharString name="caron.case">
          -91 192 841 rmoveto
          -101 81 -51 -49 120 -139 rlineto
          60 hlineto
          131 139 -49 49 rlineto
          endchar
        </CharString>
        <CharString name="ccedilla">
          -83 285 -104 rmoveto
          41 -33 24 -37 13 vhcurveto
          4 26 52 16 63 25 32 24 rlinecurve
          -25 71 -44 -15 -81 -15 -35 -3 rlinecurve
          -8 24 -4 29 31 vvcurveto
          55 13 57 25 39 vhcurveto
          38 -5 57 -22 41 -27 38 149 rcurveline
          11 -35 -29 8 -35 hhcurveto
          -159 -99 -159 -146 -48 11 -46 23 -39 hvcurveto
          88 -28 -11 -69 33 -15 29 -12 20 -16 rlinecurve
          -9 -4 -11 -6 -15 hhcurveto
          -31 -34 15 16 -29 hvcurveto
          -2 -91 rlineto
          -9 19 25 -5 20 hhcurveto
          67 63 45 66 hvcurveto
          endchar
        </CharString>
        <CharString name="cedilla">
          -217 226 -104 rmoveto
          42 -34 22 -36 14 vhcurveto
          10 64 rlineto
          -70 hlineto
          -20 -121 33 -15 29 -12 20 -16 rlinecurve
          -9 -4 -11 -6 -15 hhcurveto
          -32 -33 15 16 -29 hvcurveto
          -2 -91 rlineto
          -9 19 25 -5 20 hhcurveto
          67 63 45 66 hvcurveto
          endchar
        </CharString>
        <CharString name="cent">
          -54 184 103 rmoveto
          -8 24 -4 29 31 vvcurveto
          55 13 57 25 39 vhcurveto
          38 -5 57 -22 41 -27 38 149 rcurveline
          11 -35 -29 8 -35 hhcurveto
          -14 hlineto
          6 84 rlineto
          -113 -119 hlineto
          -86 -57 -50 -109 -105 vvcurveto
          -48 10 -45 23 -39 vhcurveto
          86 -28 -6 -99 rlineto
          113 124 hlineto
          44 15 44 19 27 20 -25 71 rcurveline
          -42 -16 -82 -14 -36 -3 rrcurveto
          endchar
        </CharString>
        <CharString name="circumflex">
          -91 199 632 rmoveto
          101 -99 51 50 -120 156 rlineto
          -60 hlineto
          -131 -156 49 -50 rlineto
          endchar
        </CharString>
        <CharString name="circumflex.case">
          -10 327 815 rmoveto
          101 -81 51 50 -120 138 rlineto
          -60 hlineto
          -131 -138 49 -50 rlineto
          endchar
        </CharString>
        <CharString name="colon">
          -203 218 302 rmoveto
          11 0 12 1 13 vhcurveto
          1 21 2 28 3 28 -38 37 rcurveline
          -115 -32 rlineto
          -11 0 -12 -1 -12 vhcurveto
          -1 -21 -1 -28 -3 -28 38 -37 rcurveline
          105 -254 rmoveto
          11 0 12 1 13 vhcurveto
          1 20 2 29 3 28 -38 37 rcurveline
          -115 -32 rlineto
          -11 0 -12 -1 -12 vhcurveto
          -1 -21 -1 -29 -3 -27 39 -38 rcurveline
          endchar
        </CharString>
        <CharString name="comma">
          -222 62 -141 rmoveto
          81 83 63 100 3 95 -40 39 rcurveline
          -120 -33 rlineto
          1 -15 1 -14 -13 vvcurveto
          -76 -18 -48 -42 -58 vhcurveto
          endchar
        </CharString>
        <CharString name="copyright">
          307 61 340 rmoveto
          178 146 146 178 177 146 -146 -178 -178 -146 -146 -177 -178 -146 146 178 vhcurveto
          -35 hmoveto
          -198 161 -160 198 198 160 160 198 198 -160 160 -198 -198 -161 -160 -198 vhcurveto
          514 69 rmoveto
          3 128 rlineto
          8 -34 -34 8 -61 hhcurveto
          -125 -116 -69 -148 -133 99 -70 131 53 52 12 13 35 hvcurveto
          -16 59 rlineto
          -7 -20 -33 -5 -37 hhcurveto
          -76 -75 37 107 93 53 46 54 28 21 -9 -12 12 hvcurveto
          7 -58 rlineto
          endchar
        </CharString>
        <CharString name="currency">
          223 73 341 rmoveto
          -53 15 -49 28 -44 vhcurveto
          -86 -85 78 -78 84 84 rlineto
          -29 43 50 -18 56 hhcurveto
          57 52 18 29 44 hvcurveto
          84 -84 78 78 -86 85 rlineto
          28 44 16 49 53 vvcurveto
          55 -17 52 -29 44 vhcurveto
          88 88 -78 78 -88 -88 rlineto
          29 -43 -51 16 -55 hhcurveto
          -53 -49 -16 -29 -43 hvcurveto
          -88 88 -78 -78 88 -88 rlineto
          -28 -44 -17 -52 -55 vvcurveto
          111 3 rmoveto
          90 71 75 88 89 71 -75 -90 -88 -71 -76 -89 -88 -71 76 88 vhcurveto
          endchar
        </CharString>
        <CharString name="d">
          51 434 770 rmoveto
          -205 -60 8 -83 rlineto
          11 33 1 3 27 hvcurveto
          5 -64 4 -44 -71 vvcurveto
          -39 hlineto
          -141 -114 -161 -196 -15 4 -39 8 -27 hvcurveto
          88 -28 58 18 62 65 48 72 rlinecurve
          7 -3 -24 -94 36 -58 rlineto
          31 136 39 40 55 hvcurveto
          -27 77 -28 -9 -21 -3 -23 -4 rlinecurve
          5 224 13 166 19 196 rrcurveto
          -170 -391 rmoveto
          -95 -4 -92 -73 -34 hhcurveto
          -1 11 0 10 11 vvcurveto
          93 36 77 55 13 16 -2 -4 12 vhcurveto
          endchar
        </CharString>
        <CharString name="degree">
          -130 125 562 rmoveto
          35 23 25 39 35 24 -25 -35 -36 -24 -26 -35 -39 -23 27 35 vhcurveto
          -79 hmoveto
          -81 60 -60 81 77 60 60 81 77 -60 60 -77 -81 -60 -60 -77 vhcurveto
          endchar
        </CharString>
        <CharString name="dieresis">
          -97 164 560 rmoveto
          7 0 7 1 9 vhcurveto
          15 1 21 3 24 vhcurveto
          -32 51 -102 -28 rlineto
          -22 vlineto
          -1 -15 -2 -19 -1 -25 32 -52 rcurveline
          287 27 rmoveto
          7 0 7 1 9 vhcurveto
          15 1 21 3 24 vhcurveto
          -32 51 -102 -28 rlineto
          -22 vlineto
          -1 -15 -2 -19 -1 -25 32 -52 rcurveline
          endchar
        </CharString>
        <CharString name="dieresis.case">
          -36 304 758 rmoveto
          7 0 7 1 9 vhcurveto
          15 1 20 3 25 vhcurveto
          -32 51 -102 -28 rlineto
          -7 0 -7 -1 -8 vhcurveto
          -15 -2 -19 -1 -25 vhcurveto
          32 -52 rlineto
          307 27 rmoveto
          23 vlineto
          1 15 1 20 3 25 -32 51 rcurveline
          -102 -28 rlineto
          -7 0 -7 -1 -8 vhcurveto
          -15 -2 -19 -1 -25 vhcurveto
          32 -52 rlineto
          endchar
        </CharString>
        <CharString name="divide">
          39 481 360 rmoveto
          -460 -92 460 hlineto
          -169 -185 rmoveto
          11 0 11 1 11 vhcurveto
          1 19 1 26 3 25 -35 34 rcurveline
          -103 -29 rlineto
          -11 0 -10 -1 -11 vhcurveto
          -1 -20 -1 -26 -3 -25 35 -33 rcurveline
          114 382 rmoveto
          11 0 11 1 11 vhcurveto
          1 19 1 26 3 25 -35 34 rcurveline
          -104 -29 rlineto
          -11 0 -10 -1 -11 vhcurveto
          -1 -20 0 -26 -3 -25 35 -33 rcurveline
          endchar
        </CharString>
        <CharString name="dollar">
          122 39 227 rmoveto
          -7 -219 50 -13 76 -11 76 -3 rlinecurve
          -6 -99 rlineto
          124 104 hlineto
          149 24 56 88 83 vvcurveto
          106 -81 57 -83 43 vhcurveto
          -85 45 rlineto
          -52 27 -37 29 41 vvcurveto
          39 33 19 51 37 38 -10 -20 28 vhcurveto
          14 -105 rlineto
          113 hlineto
          14 219 -44 11 -62 10 -65 5 rlinecurve
          5 73 rlineto
          -124 -73 hlineto
          -172 -19 -43 -95 -90 vvcurveto
          -101 72 -56 80 -43 vhcurveto
          95 -51 rlineto
          56 -29 35 -26 -37 vvcurveto
          -40 -43 -18 -57 -49 -42 14 11 -22 vhcurveto
          -15 110 rlineto
          endchar
        </CharString>
        <CharString name="dotlessi">
          -150 307 142 rmoveto
          -19 -5 -28 -7 -23 -4 rrcurveto
          -3 19 0 19 31 vvcurveto
          67 7 55 8 77 vhcurveto
          -36 58 -207 -60 9 -82 rlineto
          11 30 1 3 26 hvcurveto
          3 -19 -1 -43 -33 vvcurveto
          -49 -4 -70 -8 -66 vhcurveto
          49 -48 rlineto
          32 121 38 41 58 hvcurveto
          endchar
        </CharString>
        <CharString name="e">
          -46 350 102 hstem
          400 412 rmoveto
          37 -45 -65 3 -26 hhcurveto
          -145 -94 -149 -145 -51 12 -50 25 -43 hvcurveto
          88 -28 57 4 133 41 53 37 rlinecurve
          -28 81 -50 -16 -86 -17 -48 -3 rlinecurve
          -3 8 -6 23 11 vvcurveto
          65 19 55 25 40 20 23 12 21 12 19 12 rrcurveto
          -110 77 rmoveto
          -8 -10 -9 -10 -11 -9 -19 -16 -29 -20 -40 -17 1 43 13 37 20 19 rrcurveto
          1 4 4 0 4 hhcurveto
          24 30 -10 -8 16 hvcurveto
          endchar
        </CharString>
        <CharString name="eacute">
          -46 350 102 hstem
          400 412 rmoveto
          37 -45 -65 3 -26 hhcurveto
          -145 -94 -149 -145 -51 12 -50 25 -43 hvcurveto
          88 -28 57 4 133 41 53 37 rlinecurve
          -28 81 -50 -16 -86 -17 -48 -3 rlinecurve
          -3 8 -6 23 11 vvcurveto
          65 19 55 25 40 20 23 12 21 12 19 12 rrcurveto
          -110 77 rmoveto
          -8 -10 -9 -10 -11 -9 -19 -16 -29 -20 -40 -17 1 43 13 37 20 19 rrcurveto
          1 4 4 0 4 hhcurveto
          24 30 -10 -8 16 hvcurveto
          -49 201 rmoveto
          161 158 -21 10 -52 45 -18 18 rlinecurve
          -123 -185 rlineto
          endchar
        </CharString>
        <CharString name="ecircumflex">
          -46 62 0 101 195 endchar
        </CharString>
        <CharString name="edieresis">
          -46 350 102 hstem
          400 412 rmoveto
          37 -45 -65 3 -26 hhcurveto
          -145 -94 -149 -145 -51 12 -50 25 -43 hvcurveto
          88 -28 57 4 133 41 53 37 rlinecurve
          -28 81 -50 -16 -86 -17 -48 -3 rlinecurve
          -3 8 -6 23 11 vvcurveto
          65 19 55 25 40 20 23 12 21 12 19 12 rrcurveto
          -110 77 rmoveto
          -8 -10 -9 -10 -11 -9 -19 -16 -29 -20 -40 -17 1 43 13 37 20 19 rrcurveto
          1 4 4 0 4 hhcurveto
          24 30 -10 -8 16 hvcurveto
          -49 228 rmoveto
          7 0 7 1 9 vhcurveto
          15 1 21 3 24 vhcurveto
          -32 51 -102 -28 rlineto
          -22 vlineto
          -1 -15 -2 -19 -1 -25 32 -52 rcurveline
          287 27 rmoveto
          7 0 7 1 9 vhcurveto
          15 1 21 3 24 vhcurveto
          -32 51 -102 -28 rlineto
          -22 vlineto
          -1 -15 -2 -19 -1 -25 32 -52 rcurveline
          endchar
        </CharString>
        <CharString name="egrave">
          -46 54 0 101 193 endchar
        </CharString>
        <CharString name="eight">
          89 -20 95 530 94 hstem
          504 543 rmoveto
          106 -102 50 -106 -112 -123 -54 -123 -60 43 -54 53 -45 vhcurveto
          -71 -55 -60 -62 -92 vvcurveto
          -119 118 -55 107 139 130 80 133 70 -54 58 -59 51 vhcurveto
          53 48 44 47 76 vvcurveto
          -161 -385 rmoveto
          -53 -37 -30 -52 -57 -43 33 60 48 37 46 46 35 vhcurveto
          57 -46 49 -43 -50 vvcurveto
          -108 390 rmoveto
          39 36 18 33 44 34 -28 -48 -42 -26 -24 -30 -27 vhcurveto
          -50 40 -41 35 37 vvcurveto
          endchar
        </CharString>
        <CharString name="emdash">
          265 680 292 rmoveto
          -613 hlineto
          -4 -92 rlineto
          614 hlineto
          endchar
        </CharString>
        <CharString name="endash">
          98 512 292 rmoveto
          -445 hlineto
          -4 -92 rlineto
          446 hlineto
          endchar
        </CharString>
        <CharString name="equal">
          111 517 452 rmoveto
          -460 -92 460 hlineto
          -88 vmoveto
          -460 -92 460 hlineto
          endchar
        </CharString>
        <CharString name="eth">
          3 420 693 rmoveto
          -31 -8 -34 -10 -36 -12 -52 51 -62 37 -71 19 -38 -91 rcurveline
          37 -19 29 -23 25 -23 -28 -12 -26 -12 -23 -11 -4 -103 rcurveline
          36 23 48 24 52 24 20 -32 13 -31 9 -32 rrcurveto
          -3 hlineto
          -163 -93 -150 -115 -112 56 -89 115 169 90 155 190 104 -32 92 -53 76 hvcurveto
          74 28 rlineto
          -143 -312 rmoveto
          -94 -7 -93 -37 -45 vhcurveto
          -42 hlineto
          -25 43 -11 43 47 vvcurveto
          60 19 49 18 21 vhcurveto
          1 7 4 0 7 hhcurveto
          20 27 -5 -9 19 hvcurveto
          1 -7 0 -6 -5 vvcurveto
          endchar
        </CharString>
        <CharString name="exclam">
          -184 244 678 rmoveto
          -1 -13 -32 -3 -37 -37 -33 4 -12 hhcurveto
          8 -106 4 -108 3 -77 3 -131 rcurveline
          98 hlineto
          3 41 4 43 5 47 8 77 12 108 16 106 rrcurveto
          -29 -661 rmoveto
          11 1 12 13 vvcurveto
          1 20 2 29 3 28 -38 37 rcurveline
          -115 -32 rlineto
          -11 -1 -12 -12 vvcurveto
          -1 -21 -1 -29 -3 -27 39 -38 rcurveline
          endchar
        </CharString>
        <CharString name="exclamdown">
          -218 211 302 rmoveto
          11 0 11 1 13 vhcurveto
          1 23 1 27 4 28 -38 37 rcurveline
          -115 -32 rlineto
          -11 0 -12 -1 -13 vhcurveto
          -1 -20 -1 -28 -3 -28 38 -37 rcurveline
          -60 -511 rmoveto
          1 12 33 3 37 38 31 -4 13 hhcurveto
          -8 106 -4 108 -3 77 -3 131 rcurveline
          -98 hlineto
          -3 -41 -4 -43 -5 -47 -8 -77 -15 -108 -13 -106 rrcurveto
          endchar
        </CharString>
        <CharString name="f">
          -95 336 102 hstem
          19 438 rmoveto
          -2 -76 25 -4 29 -2 32 -3 rlinecurve
          -12 -308 -3 -74 -4 -90 -16 -40 rlinecurve
          -50 -63 26 27 -42 hvcurveto
          -5 -151 rlineto
          -13 50 21 0 11 hhcurveto
          147 99 130 169 5 hvcurveto
          11 311 rlineto
          -3 45 44 -1 33 hhcurveto
          19 116 -20 -3 -59 -6 -59 -3 rlinecurve
          1 13 3 72 6 93 13 40 rlinecurve
          40 75 -29 -24 40 hvcurveto
          4 152 rlineto
          13 -45 -20 0 -21 hhcurveto
          -124 -111 -108 -191 -8 hvcurveto
          -2 -33 rlineto
          endchar
        </CharString>
        <CharString name="f_b">
          405 -14 97 hstem
          434 12 rmoveto
          -16 52 63 -10 50 hhcurveto
          141 119 146 148 33 -9 66 -24 45 hvcurveto
          -88 28 -57 -27 -48 -41 -44 -59 rlinecurve
          -7 4 41 383 -36 58 -105 -31 rlineto
          29 -63 -36 2 -32 hhcurveto
          -127 -108 -108 -191 -8 hvcurveto
          -2 -33 rlineto
          -87 hlineto
          -2 -76 25 -4 29 -2 32 -3 rlinecurve
          -12 -308 -3 -74 -4 -90 -16 -40 rlinecurve
          -50 -63 26 27 -42 hvcurveto
          -5 -151 rlineto
          -13 50 21 0 11 hhcurveto
          147 99 130 169 5 hvcurveto
          11 311 rlineto
          -3 45 44 -1 33 hhcurveto
          19 116 -20 -3 -59 -6 -59 -3 rlinecurve
          1 13 3 72 3 93 16 40 rlinecurve
          48 89 -29 -24 48 hvcurveto
          -17 1 -22 -12 vvcurveto
          -133 -18 -332 -12 -77 vhcurveto
          162 148 rmoveto
          3 84 70 46 32 5 rrcurveto
          5 -8 7 -37 -34 vvcurveto
          -52 -29 -81 -51 -12 -14 2 4 -12 vhcurveto
          endchar
        </CharString>
        <CharString name="f_f">
          240 19 438 rmoveto
          -2 -76 17 -3 30 -1 40 -3 rlinecurve
          -13 -310 -3 -74 -4 -90 -16 -40 rlinecurve
          -50 -63 26 27 -42 hvcurveto
          -5 -151 rlineto
          -13 50 21 0 11 hhcurveto
          64 54 25 40 41 hvcurveto
          -21 67 38 -4 36 hhcurveto
          147 131 87 212 8 hvcurveto
          10 269 rlineto
          -1 56 45 -1 21 hhcurveto
          20 116 -11 -3 -56 -1 -71 -3 rlinecurve
          1 8 3 72 6 93 13 40 rlinecurve
          40 75 -29 -24 40 hvcurveto
          5 152 rlineto
          13 -46 -20 0 -21 hhcurveto
          -57 -53 -22 -43 -43 hvcurveto
          21 -67 -37 4 -36 hhcurveto
          -148 -125 -85 -207 -13 hvcurveto
          145 -90 rmoveto
          61 -3 64 -2 61 -1 -10 -255 rcurveline
          -3 -73 -6 -101 -16 -41 rrcurveto
          -48 -79 22 22 -54 hvcurveto
          11 35 7 38 1 40 rrcurveto
          39 599 rmoveto
          46 82 -23 -21 53 hvcurveto
          -11 -34 -6 -38 -1 -41 -2 -30 rcurveline
          -3 -81 -76 0 -28 hhcurveto
          3 70 5 83 16 37 rrcurveto
          endchar
        </CharString>
        <CharString name="f_f_i">
          468 19 438 rmoveto
          -2 -76 16 -3 30 -1 41 -3 rlinecurve
          -13 -310 -3 -74 -4 -90 -16 -40 rlinecurve
          -50 -63 26 27 -42 hvcurveto
          -5 -151 rlineto
          -13 50 21 0 11 hhcurveto
          64 54 25 40 41 hvcurveto
          -21 67 38 -4 36 hhcurveto
          147 131 87 212 8 hvcurveto
          10 271 114 -3 rlineto
          3 -29 0 -59 -30 vvcurveto
          -48 -5 -71 -8 -66 vhcurveto
          49 -48 rlineto
          33 121 38 41 58 hvcurveto
          -26 77 -19 -5 -29 -7 -23 -4 rlinecurve
          19 -1 19 31 vvcurveto
          67 4 55 11 77 vhcurveto
          -36 58 -14 -3 -108 -3 -120 -3 rlinecurve
          5 97 2 82 16 36 rrcurveto
          53 99 -29 -24 53 hvcurveto
          7 152 rlineto
          13 -60 -28 0 -27 hhcurveto
          -73 -60 -24 -41 -44 hvcurveto
          21 -67 -37 4 -36 hhcurveto
          -148 -125 -85 -207 -13 hvcurveto
          145 -88 rmoveto
          60 -3 62 -2 64 -1 -10 -267 rcurveline
          -3 -69 -3 -77 -19 -59 rrcurveto
          -50 -77 22 22 -54 hvcurveto
          11 35 7 38 1 40 rrcurveto
          39 599 rmoveto
          46 81 -22 -22 54 hvcurveto
          -11 -35 -6 -37 -1 -41 -2 -31 rcurveline
          -85 -76 -2 -24 hhcurveto
          3 70 5 83 16 37 rrcurveto
          endchar
        </CharString>
        <CharString name="f_f_l">
          548 19 438 rmoveto
          -2 -76 17 -3 30 -1 40 -3 rlinecurve
          -13 -310 -3 -74 -4 -90 -16 -40 rlinecurve
          -50 -63 26 27 -42 hvcurveto
          -5 -151 rlineto
          -13 50 21 0 11 hhcurveto
          64 54 25 40 41 hvcurveto
          -21 67 38 -4 36 hhcurveto
          147 131 87 212 8 hvcurveto
          10 269 rlineto
          -1 56 45 -1 21 hhcurveto
          20 116 -11 -3 -56 -1 -71 -3 rlinecurve
          5 80 2 93 16 40 rrcurveto
          49 87 -29 -24 48 hvcurveto
          1 -21 1 -27 -17 vvcurveto
          -103 -7 -248 -24 -155 vhcurveto
          49 -48 rlineto
          33 117 35 44 64 hvcurveto
          -27 77 -19 -7 -26 -5 -23 -4 rlinecurve
          33 -1 32 33 vvcurveto
          165 8 160 19 163 vhcurveto
          -36 58 -108 -31 rlineto
          29 -66 -34 2 -32 hhcurveto
          -59 -52 -23 -41 -43 hvcurveto
          22 -67 -37 2 -35 hhcurveto
          -148 -125 -85 -207 -13 hvcurveto
          296 -566 rmoveto
          -50 -77 22 22 -54 hvcurveto
          11 35 7 38 1 40 11 319 rcurveline
          61 -3 64 -2 61 -1 -10 -265 rcurveline
          -3 -69 -3 -77 -19 -59 rrcurveto
          -123 756 rmoveto
          46 82 -23 -21 53 hvcurveto
          -9 -33 -8 -39 -1 -41 -2 -30 rcurveline
          -3 -81 -76 0 -28 hhcurveto
          3 70 5 83 16 37 rrcurveto
          endchar
        </CharString>
        <CharString name="f_h">
          454 601 hmoveto
          3 195 rlineto
          45 65 42 27 8 vhcurveto
          1 -15 0 -7 -19 vvcurveto
          -47 -12 -93 -11 -75 vhcurveto
          49 -48 rlineto
          32 131 39 40 56 hvcurveto
          -26 77 rlineto
          -7 -17 -45 -9 -12 hhcurveto
          5 56 6 78 37 vvcurveto
          36 -2 42 -11 48 vhcurveto
          -67 29 -43 -11 -84 -43 -57 -73 rlinecurve
          -7 4 41 383 -36 58 -105 -31 rlineto
          29 -63 -36 2 -32 hhcurveto
          -127 -108 -108 -191 -8 hvcurveto
          -2 -33 rlineto
          -87 hlineto
          -2 -76 25 -4 29 -2 32 -3 rlinecurve
          -12 -308 -3 -74 -4 -90 -16 -40 rlinecurve
          -50 -63 26 27 -42 hvcurveto
          -5 -151 rlineto
          -13 50 21 0 11 hhcurveto
          147 99 130 169 5 hvcurveto
          11 311 rlineto
          -3 45 44 -1 33 hhcurveto
          19 116 -20 -3 -59 -6 -59 -3 rlinecurve
          1 13 3 72 3 93 16 40 rlinecurve
          48 89 -29 -24 48 hvcurveto
          -15 1 -21 -19 vvcurveto
          -139 -21 -333 -10 -78 vhcurveto
          endchar
        </CharString>
        <CharString name="f_i">
          133 19 438 rmoveto
          -2 -76 22 -3 29 -3 35 -2 rlinecurve
          -12 -309 -3 -74 -4 -90 -16 -40 rlinecurve
          -50 -63 26 27 -42 hvcurveto
          -5 -151 rlineto
          -13 50 21 0 11 hhcurveto
          147 99 130 169 5 hvcurveto
          11 315 40 -3 37 -1 36 -1 rlinecurve
          -28 3 -62 -30 vvcurveto
          -48 -6 -71 -8 -66 vhcurveto
          50 -48 rlineto
          33 121 38 41 58 hvcurveto
          -26 77 -19 -5 -28 -7 -23 -4 rlinecurve
          -1 19 -1 19 31 vvcurveto
          67 4 55 11 77 vhcurveto
          -36 58 -22 -6 -125 -4 -95 -3 rlinecurve
          1 14 3 72 6 93 13 40 rlinecurve
          55 96 -29 -24 54 hvcurveto
          7 152 rlineto
          13 -60 -28 0 -27 hhcurveto
          -166 -93 -117 -182 -8 hvcurveto
          -2 -33 rlineto
          endchar
        </CharString>
        <CharString name="f_j">
          104 19 438 rmoveto
          -2 -76 21 -4 30 -1 35 -3 rlinecurve
          -12 -309 -3 -74 -4 -90 -16 -40 rlinecurve
          -50 -63 26 27 -42 hvcurveto
          -5 -151 rlineto
          -13 50 21 0 11 hhcurveto
          147 99 130 169 5 hvcurveto
          11 315 122 -5 rlineto
          3 -42 0 -92 -33 vvcurveto
          -59 -2 -56 -5 -57 vhcurveto
          -4 -64 -72 -97 -24 -36 90 -73 rcurveline
          56 67 99 116 4 87 5 149 5 83 13 162 -35 58 rcurveline
          -22 -6 -132 -4 -98 -3 1 14 rcurveline
          3 72 6 93 13 40 rrcurveto
          55 96 -29 -24 54 hvcurveto
          7 152 rlineto
          13 -60 -28 0 -27 hhcurveto
          -166 -93 -117 -182 -8 hvcurveto
          -2 -33 rlineto
          endchar
        </CharString>
        <CharString name="f_k">
          439 601 hmoveto
          3 205 rlineto
          46 71 50 31 5 vhcurveto
          -41 -18 -52 -59 -51 vhcurveto
          89 -176 rlineto
          32 97 39 40 55 hvcurveto
          -27 77 -16 -5 -23 -8 -13 -1 rlinecurve
          -47 72 rlineto
          59 51 19 76 53 vvcurveto
          17 1 15 -4 11 vhcurveto
          -77 29 -71 -20 -63 -46 -51 -61 rlinecurve
          -7 4 41 383 -36 58 -105 -31 rlineto
          29 -63 -36 2 -32 hhcurveto
          -127 -108 -108 -191 -8 hvcurveto
          -2 -33 rlineto
          -87 hlineto
          -2 -76 25 -4 29 -2 32 -3 rlinecurve
          -12 -308 -3 -74 -4 -90 -16 -40 rlinecurve
          -50 -63 26 27 -42 hvcurveto
          -5 -151 rlineto
          -13 50 21 0 11 hhcurveto
          147 99 130 169 5 hvcurveto
          11 311 rlineto
          -3 45 44 -1 33 hhcurveto
          19 116 -20 -3 -59 -6 -59 -3 rlinecurve
          1 13 3 72 3 93 16 40 rlinecurve
          48 89 -29 -24 48 hvcurveto
          -17 1 -25 -13 vvcurveto
          -139 -21 -333 -10 -78 vhcurveto
          endchar
        </CharString>
        <CharString name="f_l">
          213 669 142 rmoveto
          -19 -7 -26 -5 -23 -4 rrcurveto
          35 -1 34 35 vvcurveto
          164 8 158 19 160 vhcurveto
          -36 58 -108 -31 rlineto
          29 -66 -34 2 -32 hhcurveto
          -127 -108 -108 -191 -8 hvcurveto
          -2 -33 rlineto
          -87 hlineto
          -2 -76 25 -4 29 -2 32 -3 rlinecurve
          -12 -308 -3 -74 -4 -90 -16 -40 rlinecurve
          -50 -63 26 27 -42 hvcurveto
          -5 -151 rlineto
          -13 50 21 0 11 hhcurveto
          147 99 130 169 5 hvcurveto
          11 311 rlineto
          -3 45 44 -1 33 hhcurveto
          19 116 -20 -3 -59 -6 -59 -3 rlinecurve
          1 13 3 72 3 93 16 40 rlinecurve
          49 87 -29 -24 48 hvcurveto
          1 -21 1 -27 -17 vvcurveto
          -103 -7 -247 -24 -156 vhcurveto
          49 -48 rlineto
          34 116 35 44 64 hvcurveto
          endchar
        </CharString>
        <CharString name="five">
          58 206 105 rmoveto
          -46 -46 14 53 -48 hvcurveto
          -75 -137 rlineto
          -37 45 73 -18 61 hhcurveto
          175 142 124 152 125 -106 61 -104 -28 -27 -3 -7 -25 hvcurveto
          15 121 256 31 16 58 8 33 16 45 rlinecurve
          -84 36 -49 -74 rlineto
          -258 hlineto
          -38 -306 49 -62 rlineto
          7 19 29 5 25 hhcurveto
          78 35 -52 -51 -83 -48 -35 -60 hvcurveto
          endchar
        </CharString>
        <CharString name="four">
          114 -3 95 100 105 hstem
          270 98 rmoveto
          -19 -20 -2 -1 -16 hvcurveto
          -27 -3 -3 -95 rlineto
          8 72 52 0 35 hhcurveto
          37 44 -3 -1 33 hvcurveto
          60 -4 3 86 -83 56 rlineto
          53 94 vlineto
          33 121 -35 -2 -23 -1 -30 -4 -37 -1 rlinecurve
          4 131 6 166 4 60 -99 37 rcurveline
          -352 -399 -3 -108 rlineto
          275 hlineto
          -1 -36 -3 -31 -1 -27 rrcurveto
          12 362 rmoveto
          -40 0 -60 -3 -63 vhcurveto
          -3 -52 -51 0 -47 hhcurveto
          endchar
        </CharString>
        <CharString name="foursuperior">
          -107 182 454 rmoveto
          -11 -9 -1 -9 hhcurveto
          -14 -2 -2 -57 rlineto
          5 41 34 0 17 hhcurveto
          17 23 -2 -1 20 hvcurveto
          33 -2 2 52 -44 30 rlineto
          23 46 vlineto
          18 68 -18 -2 -45 -3 rlineto
          71 4 84 3 34 vhcurveto
          -58 19 -188 -213 -1 -58 rlineto
          144 hlineto
          3 140 rmoveto
          -20 -1 -31 -29 vvcurveto
          -1 -25 -26 -1 -23 hhcurveto
          endchar
        </CharString>
        <CharString name="fraction">
          24 28 -17 rmoveto
          490 680 -58 44 -490 -676 rlineto
          endchar
        </CharString>
        <CharString name="g">
          26 355 97 hstem
          458 426 rmoveto
          16 -52 -76 10 -52 hhcurveto
          -145 -110 -157 -200 -11 2 -41 11 -29 hvcurveto
          88 -28 57 18 58 65 48 72 rlinecurve
          6 -3 rlineto
          -72 -7 -189 -17 -36 vhcurveto
          -74 -78 32 27 -64 hvcurveto
          -8 -152 rlineto
          -13 51 63 -6 23 hhcurveto
          145 106 106 192 8 hvcurveto
          5 149 1 106 11 144 rrcurveto
          -158 -105 rmoveto
          -8 -96 -84 -69 -37 -3 rrcurveto
          -1 11 0 10 11 vvcurveto
          93 32 77 58 12 18 -2 -4 12 vhcurveto
          endchar
        </CharString>
        <CharString name="germandbls">
          159 294 658 rmoveto
          37 40 -16 -10 24 hvcurveto
          -80 -36 -75 -42 -39 vhcurveto
          -3 -96 89 -63 57 -70 19 -113 rlinecurve
          -61 3 -43 14 -66 37 -5 -151 rcurveline
          -5 28 36 -8 55 hhcurveto
          115 74 81 108 97 -81 102 -104 64 hvcurveto
          61 32 57 71 88 vvcurveto
          70 -50 71 -109 -148 -105 -108 -191 -8 vhcurveto
          -1 -33 rlineto
          -104 hlineto
          -5 -122 32 5 36 6 36 5 rlinecurve
          -11 -287 -3 -74 -4 -90 -16 -40 rlinecurve
          -57 1 -50 24 -47 28 -5 -151 rcurveline
          -13 50 21 0 11 hhcurveto
          147 99 130 169 5 hvcurveto
          13 424 3 73 8 91 11 41 rlinecurve
          endchar
        </CharString>
        <CharString name="grave">
          -192 250 582 rmoveto
          -132 182 -16 -16 -51 -47 -21 -16 rlinecurve
          166 -152 rlineto
          endchar
        </CharString>
        <CharString name="grave.case">
          -149 349 795 rmoveto
          -171 147 -14 -19 -37 -56 -16 -21 rlinecurve
          196 -112 rlineto
          endchar
        </CharString>
        <CharString name="greater">
          51 496 340 rmoveto
          -416 211 -40 -78 324 -165 -324 -164 40 -78 416 210 rlineto
          endchar
        </CharString>
        <CharString name="guillemotleft">
          4 346 256 rmoveto
          92 140 -32 32 -180 -172 169 -173 33 32 rlineto
          -250 141 rmoveto
          148 185 -43 42 -263 -227 249 -227 43 42 rlineto
          endchar
        </CharString>
        <CharString name="guillemotright">
          4 139 256 rmoveto
          -93 -140 33 -32 180 172 -169 173 -33 -32 rlineto
          250 -141 rmoveto
          -148 -185 43 -42 263 227 -249 227 -43 -42 rlineto
          endchar
        </CharString>
        <CharString name="guilsinglleft">
          -124 178 256 rmoveto
          148 185 -43 42 -263 -227 249 -227 43 42 rlineto
          endchar
        </CharString>
        <CharString name="guilsinglright">
          -125 178 256 rmoveto
          -148 -185 43 -42 263 227 -249 227 -43 -42 rlineto
          endchar
        </CharString>
        <CharString name="h">
          59 206 hmoveto
          4 195 rlineto
          45 64 42 27 8 vhcurveto
          1 -15 0 -7 -19 vvcurveto
          -47 -12 -93 -11 -75 vhcurveto
          49 -48 rlineto
          32 131 39 40 56 hvcurveto
          -26 77 rlineto
          -7 -17 -45 -9 -12 hhcurveto
          5 56 6 78 37 vvcurveto
          36 -2 42 -11 48 vhcurveto
          -67 29 -43 -11 -84 -43 -57 -73 rlinecurve
          -7 4 41 383 -36 58 -205 -60 8 -83 rlineto
          13 31 1 3 28 hvcurveto
          -10 2 -40 -31 vvcurveto
          -139 -21 -333 -10 -78 vhcurveto
          endchar
        </CharString>
        <CharString name="hyphen">
          -82 63 302 rmoveto
          -5 -112 rlineto
          276 hlineto
          5 112 rlineto
          endchar
        </CharString>
        <CharString name="i">
          -150 306 142 rmoveto
          -19 -5 -30 -7 -21 -4 rrcurveto
          -1 19 -1 19 31 vvcurveto
          67 4 55 11 77 vhcurveto
          -36 58 -207 -60 8 -82 rlineto
          12 30 1 3 26 hvcurveto
          3 -19 -1 -43 -33 vvcurveto
          -48 -5 -71 -8 -66 vhcurveto
          49 -48 rlineto
          33 121 38 41 58 hvcurveto
          -84 490 rmoveto
          12 0 12 1 13 vhcurveto
          1 23 1 29 4 29 -40 39 rcurveline
          -120 -33 rlineto
          -11 0 -13 -1 -13 vhcurveto
          -1 -23 -2 -29 -3 -29 40 -39 rcurveline
          endchar
        </CharString>
        <CharString name="iacute">
          -150 307 142 rmoveto
          -19 -5 -28 -7 -23 -4 rrcurveto
          -3 19 0 19 31 vvcurveto
          67 7 55 8 77 vhcurveto
          -36 58 -207 -60 9 -82 rlineto
          11 30 1 3 26 hvcurveto
          3 -19 -1 -43 -33 vvcurveto
          -49 -4 -70 -8 -66 vhcurveto
          49 -48 rlineto
          32 121 38 41 58 hvcurveto
          -145 468 rmoveto
          161 158 -21 10 -52 45 -18 18 rlinecurve
          -123 -185 rlineto
          endchar
        </CharString>
        <CharString name="icircumflex">
          -150 -9 0 245 195 endchar
        </CharString>
        <CharString name="idieresis">
          -150 307 142 rmoveto
          -19 -5 -28 -7 -23 -4 rrcurveto
          -3 19 0 19 31 vvcurveto
          67 7 55 8 77 vhcurveto
          -36 58 -207 -60 9 -82 rlineto
          11 30 1 3 26 hvcurveto
          3 -19 -1 -43 -33 vvcurveto
          -49 -4 -70 -8 -66 vhcurveto
          49 -48 rlineto
          32 121 38 41 58 hvcurveto
          -174 495 rmoveto
          7 0 7 1 9 vhcurveto
          15 1 21 3 24 vhcurveto
          -32 51 -102 -28 rlineto
          -22 vlineto
          -1 -15 -2 -19 -1 -25 32 -52 rcurveline
          287 27 rmoveto
          7 0 7 1 9 vhcurveto
          15 1 21 3 24 vhcurveto
          -32 51 -102 -28 rlineto
          -22 vlineto
          -1 -15 -2 -19 -1 -25 32 -52 rcurveline
          endchar
        </CharString>
        <CharString name="igrave">
          -150 -6 0 245 193 endchar
        </CharString>
        <CharString name="j">
          -189 213 452 rmoveto
          -207 -60 8 -82 rlineto
          12 30 1 3 26 hvcurveto
          1 -23 0 -31 -31 vvcurveto
          -92 -2 -69 -5 -68 vhcurveto
          -6 -66 -69 -92 -25 -39 90 -73 rcurveline
          56 68 99 115 4 87 8 148 0 86 16 160 rrcurveto
          -1 161 rmoveto
          12 0 12 1 13 vhcurveto
          1 23 1 29 4 29 -40 39 rcurveline
          -120 -33 rlineto
          -11 0 -13 -1 -13 vhcurveto
          -1 -23 -2 -29 -3 -29 40 -39 rcurveline
          endchar
        </CharString>
        <CharString name="k">
          44 65 77 hstem
          206 hmoveto
          4 205 rlineto
          46 70 50 31 5 vhcurveto
          -41 -18 -52 -59 -51 vhcurveto
          89 -176 rlineto
          32 97 39 40 55 hvcurveto
          -27 77 -16 -5 -23 -8 -13 -1 rlinecurve
          -47 72 rlineto
          59 51 20 76 53 vvcurveto
          17 -1 15 -3 11 vhcurveto
          -77 29 -71 -20 -63 -46 -51 -61 rlinecurve
          -7 4 41 383 -36 58 -205 -60 8 -83 rlineto
          13 31 1 3 28 hvcurveto
          -10 2 -49 -22 vvcurveto
          -139 -21 -333 -10 -78 vhcurveto
          endchar
        </CharString>
        <CharString name="l">
          -183 65 77 hstem
          273 142 rmoveto
          -19 -7 -25 -5 -23 -4 rrcurveto
          -1 38 0 38 38 vvcurveto
          160 9 155 17 157 vhcurveto
          -36 58 -209 -60 8 -83 rlineto
          13 31 1 3 27 hvcurveto
          -13 3 -52 -26 vvcurveto
          -103 -7 -247 -24 -156 vhcurveto
          49 -48 rlineto
          34 116 35 44 64 hvcurveto
          endchar
        </CharString>
        <CharString name="less">
          51 18 276 rmoveto
          416 -210 40 78 -326 164 326 165 -40 78 -416 -211 rlineto
          endchar
        </CharString>
        <CharString name="logicalnot">
          65 475 360 rmoveto
          -430 -92 338 -110 92 hlineto
          endchar
        </CharString>
        <CharString name="m">
          321 480 326 rmoveto
          -3 23 -5 52 -5 22 -67 29 rcurveline
          -40 -11 -96 -51 -59 -93 -7 3 rcurveline
          24 94 -36 58 -174 -60 8 -82 rlineto
          12 33 1 3 26 hvcurveto
          -24 vlineto
          -71 -8 -112 -13 -107 vhcurveto
          163 hlineto
          4 195 rlineto
          46 63 41 27 8 vhcurveto
          -71 -8 -112 -13 -107 vhcurveto
          166 hlineto
          4 195 3 46 60 41 28 8 rlinecurve
          1 -15 0 -7 -19 vvcurveto
          -47 -12 -93 -11 -75 vhcurveto
          49 -48 rlineto
          31 128 39 40 55 hvcurveto
          -26 77 rlineto
          -7 -17 -45 -9 -12 hhcurveto
          5 56 6 78 37 vvcurveto
          36 -2 42 -11 48 vhcurveto
          -67 29 -41 -14 -75 -50 -43 -62 rlinecurve
          endchar
        </CharString>
        <CharString name="macron">
          95 407 633 rmoveto
          -276 hlineto
          -4 -92 rlineto
          277 hlineto
          endchar
        </CharString>
        <CharString name="minus">
          109 516 360 rmoveto
          -460 -92 460 hlineto
          endchar
        </CharString>
        <CharString name="mu">
          122 222 15 rmoveto
          68 38 37 43 35 45 7 -3 rcurveline
          -24 -94 36 -58 48 8 89 31 56 40 rlinecurve
          -27 77 -21 -8 -31 -5 -20 -3 rlinecurve
          3 120 8 86 11 106 rrcurveto
          -168 hlineto
          -4 -189 rlineto
          -45 -64 -42 -27 -8 vhcurveto
          -1 15 0 7 19 vvcurveto
          62 17 106 11 75 vhcurveto
          -160 hlineto
          -5 -271 -28 -246 -19 -171 rrcurveto
          168 hlineto
          endchar
        </CharString>
        <CharString name="multiply">
          37 99 100 rmoveto
          151 151 150 -151 65 65 -151 151 151 151 -65 65 -150 -151 -151 151 -65 -65 151 -151 -151 -151 rlineto
          endchar
        </CharString>
        <CharString name="n">
          91 552 142 rmoveto
          -7 -17 -46 -9 -10 hhcurveto
          3 56 7 78 37 vvcurveto
          36 -3 42 -9 48 vhcurveto
          -67 29 -72 -21 -85 -59 -48 -75 rlinecurve
          -8 3 25 94 -36 58 -175 -60 9 -82 rlineto
          11 33 1 3 26 hvcurveto
          -59 vlineto
          -69 -6 -79 -15 -107 vhcurveto
          168 hlineto
          5 195 3 46 60 41 28 8 rlinecurve
          -41 vlineto
          -47 -11 -93 -11 -75 vhcurveto
          48 -48 rlineto
          32 132 39 40 56 hvcurveto
          endchar
        </CharString>
        <CharString name="nbspace">
          -264 endchar
        </CharString>
        <CharString name="nine">
          81 269 102 219 109 hstem
          102 -20 rmoveto
          215 80 202 165 225 vvcurveto
          162 -108 87 -137 -125 -123 -91 -154 -130 104 -55 90 31 30 5 9 28 vhcurveto
          -53 -96 -91 -78 -104 -42 rrcurveto
          220 304 rmoveto
          -69 -22 48 60 71 35 40 45 50 36 -44 -88 -25 -3 -25 -5 -25 hvcurveto
          -8 -21 -22 -4 -24 hhcurveto
          endchar
        </CharString>
        <CharString name="noBreak">
          -249 endchar
        </CharString>
        <CharString name="nonmarkingreturn">
          -249 endchar
        </CharString>
        <CharString name="ntilde">
          91 88 0 110 196 endchar
        </CharString>
        <CharString name="numbersign">
          283 372 679 rmoveto
          -115 hlineto
          -32 -178 rlineto
          -155 hlineto
          -3 -100 37 3 49 2 56 3 rlinecurve
          -25 -144 rlineto
          -161 hlineto
          -3 -100 37 3 53 2 57 3 rlinecurve
          -30 -173 rlineto
          115 hlineto
          31 177 rlineto
          1 43 42 1 43 hhcurveto
          -32 -179 rlineto
          115 hlineto
          32 180 rlineto
          1 44 37 0 27 hhcurveto
          43 hlineto
          3 84 rlineto
          -139 hlineto
          26 151 rlineto
          1 47 37 0 28 hhcurveto
          44 hlineto
          4 84 rlineto
          -145 hlineto
          32 178 rlineto
          -115 hlineto
          -32 -178 rlineto
          -127 hlineto
          86 -236 rmoveto
          -127 hlineto
          26 148 127 2 rlineto
          endchar
        </CharString>
        <CharString name="o">
          -6 -14 101 263 102 hstem
          446 250 rmoveto
          100 -35 102 -131 -161 -94 -149 -115 -104 48 -98 127 157 89 155 109 vhcurveto
          -189 100 rmoveto
          24 -43 12 -40 -53 vvcurveto
          -53 -18 -50 -19 -24 vhcurveto
          -42 hlineto
          -24 43 -12 40 53 vvcurveto
          54 18 48 19 25 vhcurveto
          endchar
        </CharString>
        <CharString name="oacute">
          -6 -14 101 263 102 hstem
          446 250 rmoveto
          100 -35 102 -131 -161 -94 -149 -115 -104 48 -98 127 157 89 155 109 vhcurveto
          -189 100 rmoveto
          24 -43 12 -40 -53 vvcurveto
          -53 -18 -50 -19 -24 vhcurveto
          -42 hlineto
          -24 43 -12 40 53 vvcurveto
          54 18 48 19 25 vhcurveto
          47 183 rmoveto
          161 158 -21 10 -52 45 -18 18 rlinecurve
          -123 -185 rlineto
          endchar
        </CharString>
        <CharString name="ocircumflex">
          -6 55 0 111 195 endchar
        </CharString>
        <CharString name="odieresis">
          -6 69 0 111 200 endchar
        </CharString>
        <CharString name="oe">
          192 639 411 rmoveto
          37 -45 -65 3 -26 hhcurveto
          -43 -38 -14 -21 -33 hvcurveto
          23 -25 -36 13 -48 hhcurveto
          -161 -94 -149 -115 -104 48 -98 127 39 34 10 16 31 hvcurveto
          85 -27 57 4 134 42 52 36 rlinecurve
          -28 81 -49 -15 -87 -18 -48 -3 rlinecurve
          -3 11 -3 21 -3 10 65 19 56 25 39 20 23 12 21 12 19 12 rrcurveto
          -376 96 rmoveto
          13 -23 9 -23 7 -24 rrcurveto
          -15 -39 -8 -41 -42 vvcurveto
          -24 3 -24 5 -23 vhcurveto
          -57 hlineto
          -24 43 -12 40 53 vvcurveto
          53 16 51 21 23 vhcurveto
          308 -19 rmoveto
          -8 -10 -9 -10 -11 -9 -20 -16 -29 -20 -39 -17 3 43 11 37 20 19 rrcurveto
          1 4 4 0 4 hhcurveto
          24 29 -10 -8 17 hvcurveto
          endchar
        </CharString>
        <CharString name="ograve">
          -6 90 0 111 193 endchar
        </CharString>
        <CharString name="one">
          -56 221 699 rmoveto
          -49 -38 -73 -64 -94 -54 47 -88 rcurveline
          90 46 rlineto
          -87 -6 -222 -8 -94 vhcurveto
          -19 -20 -2 -1 -15 hvcurveto
          -27 -3 -4 -95 rlineto
          8 73 57 0 36 hhcurveto
          37 41 -3 -1 33 hvcurveto
          56 -4 4 86 -83 56 rlineto
          85 10 345 5 93 vhcurveto
          endchar
        </CharString>
        <CharString name="onehalf">
          243 134 679 rmoveto
          -25 -20 -39 -34 -51 -29 27 -53 rcurveline
          46 25 rlineto
          -46 -4 -109 -3 -50 vhcurveto
          -11 -10 -1 -8 hhcurveto
          -14 -2 -3 -57 rlineto
          5 43 34 0 17 hhcurveto
          16 24 -2 -1 19 hvcurveto
          33 -2 2 52 -44 30 rlineto
          45 0 180 8 50 vhcurveto
          -56 -677 rmoveto
          490 680 -58 44 -490 -676 rlineto
          488 227 rmoveto
          -55 -86 -81 -69 -72 vhcurveto
          23 -50 rlineto
          236 hlineto
          15 126 -49 7 -26 -52 -112 -19 rlineto
          112 91 56 57 64 vvcurveto
          67 -45 35 -63 -56 -40 -23 -35 -33 vhcurveto
          35 -46 rlineto
          19 20 18 9 21 hhcurveto
          25 18 -15 -27 hvcurveto
          endchar
        </CharString>
        <CharString name="onequarter">
          217 134 679 rmoveto
          -25 -20 -39 -34 -51 -29 27 -53 rcurveline
          46 25 rlineto
          -46 -4 -109 -3 -50 vhcurveto
          -11 -10 -1 -8 hhcurveto
          -14 -2 -3 -57 rlineto
          5 43 34 0 17 hhcurveto
          16 24 -2 -1 19 hvcurveto
          33 -2 2 52 -44 30 rlineto
          45 0 180 8 50 vhcurveto
          -56 -677 rmoveto
          490 680 -58 44 -490 -676 rlineto
          421 29 rmoveto
          -11 -9 -1 -9 hhcurveto
          -14 -2 -2 -57 rlineto
          5 41 34 0 17 hhcurveto
          17 23 -2 -1 20 hvcurveto
          33 -2 2 52 -44 30 rlineto
          23 46 vlineto
          18 68 -18 -2 -45 -3 rlineto
          71 4 84 3 34 vhcurveto
          -58 19 -188 -213 -1 -58 rlineto
          144 hlineto
          3 140 rmoveto
          -20 -1 -31 -29 vvcurveto
          -1 -25 -26 -1 -23 hhcurveto
          endchar
        </CharString>
        <CharString name="onesuperior">
          -196 157 770 rmoveto
          -25 -20 -39 -34 -51 -29 27 -53 rcurveline
          46 25 rlineto
          -46 -4 -109 -3 -50 vhcurveto
          -11 -10 -1 -8 hhcurveto
          -14 -2 -3 -57 rlineto
          5 43 34 0 17 hhcurveto
          16 24 -2 -1 19 hvcurveto
          33 -2 2 52 -44 30 rlineto
          45 0 180 8 50 vhcurveto
          endchar
        </CharString>
        <CharString name="ordfeminine">
          -19 695 75 hstem
          266 526 rmoveto
          -18 -73 28 -45 rlineto
          26 97 32 29 45 hvcurveto
          -20 60 -19 -7 -23 -4 -15 -1 rlinecurve
          5 83 -4 65 11 85 rrcurveto
          13 -45 -45 7 -40 hhcurveto
          -101 -95 -118 -159 -16 4 -30 5 -17 hvcurveto
          69 -22 44 14 49 51 37 56 rlinecurve
          7 139 rmoveto
          -74 -4 -71 -56 -25 hhcurveto
          -1 8 0 9 7 vvcurveto
          74 27 59 43 9 14 -2 -3 9 vhcurveto
          endchar
        </CharString>
        <CharString name="ordmasculine">
          -85 374 614 rmoveto
          77 -28 79 -100 -124 -74 -116 -88 -80 38 -77 98 123 67 120 85 vhcurveto
          -145 77 rmoveto
          19 -32 9 -32 -41 vvcurveto
          -41 -14 -40 -15 -18 vhcurveto
          -32 hlineto
          -19 33 -9 32 41 vvcurveto
          43 15 36 13 19 vhcurveto
          endchar
        </CharString>
        <CharString name="oslash">
          10 -18 -11 rmoveto
          43 -43 75 78 rlineto
          -24 28 37 -14 49 hhcurveto
          157 89 155 109 44 -6 43 -19 36 hvcurveto
          63 66 -43 43 -59 -62 rlineto
          20 -25 -33 12 -44 hhcurveto
          -161 -94 -149 -115 -41 7 -39 17 -35 hvcurveto
          245 141 rmoveto
          -54 -18 -48 -19 -25 vhcurveto
          -42 hlineto
          -9 15 -7 16 -6 17 100 105 rcurveline
          1 -9 0 -8 -9 vvcurveto
          -36 136 rmoveto
          7 -13 7 -14 5 -12 -98 -103 rcurveline
          15 vlineto
          54 18 48 19 25 vhcurveto
          endchar
        </CharString>
        <CharString name="otilde">
          -6 -14 101 263 102 hstem
          446 250 rmoveto
          100 -35 102 -131 -161 -94 -149 -115 -104 48 -98 127 157 89 155 109 vhcurveto
          -189 100 rmoveto
          24 -43 12 -40 -53 vvcurveto
          -53 -18 -50 -19 -24 vhcurveto
          -42 hlineto
          -24 43 -12 40 53 vvcurveto
          54 18 48 19 25 vhcurveto
          113 190 rmoveto
          106 115 -48 49 -66 -57 -43 13 -27 13 -40 22 rlinecurve
          -44 hlineto
          -100 -111 43 -51 70 60 32 -17 32 -20 43 -16 rlinecurve
          endchar
        </CharString>
        <CharString name="p">
          42 -14 97 hstem
          87 -270 rmoveto
          215 60 -8 82 rlineto
          -11 -42 -1 -3 -29 hvcurveto
          14 1 77 3 27 vhcurveto
          14 hlineto
          143 123 142 155 33 -10 63 -24 45 hvcurveto
          -87 28 -58 -19 -64 -59 -48 -77 rlinecurve
          -8 4 25 93 -36 58 -175 -60 9 -82 rlineto
          11 33 1 3 26 hvcurveto
          -16 vlineto
          -102 -10 -129 -29 -279 vhcurveto
          174 357 rmoveto
          5 90 74 57 33 3 rrcurveto
          7 -17 5 -26 -27 vvcurveto
          -72 -33 -70 -55 -12 -16 1 4 -11 vhcurveto
          endchar
        </CharString>
        <CharString name="paragraph">
          86 445 571 rmoveto
          25 17 3 3 30 hvcurveto
          4 105 rlineto
          -7 -53 -49 -1 -47 -70 -55 8 -71 hhcurveto
          -114 -48 -79 -80 -69 40 -76 110 hvcurveto
          16 hlineto
          -22 -629 rlineto
          97 hlineto
          29 822 rlineto
          64 hlineto
          -28 -822 rlineto
          97 hlineto
          endchar
        </CharString>
        <CharString name="parenleft">
          -101 346 725 rmoveto
          -184 -88 -133 -185 -195 vvcurveto
          -208 103 -148 181 -112 vhcurveto
          43 63 rlineto
          -152 136 -38 114 155 vvcurveto
          157 69 140 152 109 vhcurveto
          endchar
        </CharString>
        <CharString name="parenright">
          -101 34 -211 rmoveto
          184 88 133 185 195 vvcurveto
          207 -103 149 -181 112 vhcurveto
          -43 -63 rlineto
          151 -135 39 -115 -155 vvcurveto
          -157 -69 -138 -152 -111 vhcurveto
          endchar
        </CharString>
        <CharString name="percent">
          259 347 503 rmoveto
          19 -1 18 -4 17 vhcurveto
          -1 13 12 -1 12 hhcurveto
          47 38 10 13 29 hvcurveto
          -397 -547 58 -48 490 680 -58 44 -44 -61 rlineto
          -12 -32 -47 -13 -64 hhcurveto
          -65 -33 16 6 -13 hvcurveto
          11 -21 -20 5 -28 hhcurveto
          -124 -74 -114 -90 -81 39 -76 97 122 68 120 85 hvcurveto
          354 -298 rmoveto
          77 -28 79 -100 -124 -74 -115 -89 -81 39 -76 97 122 68 120 85 vhcurveto
          -145 77 rmoveto
          19 -32 9 -32 -41 vvcurveto
          -43 -14 -37 -15 -19 vhcurveto
          -32 hlineto
          -19 33 -9 32 41 vvcurveto
          43 13 38 15 17 vhcurveto
          -321 298 rmoveto
          19 -32 9 -32 -41 vvcurveto
          -43 -14 -37 -15 -19 vhcurveto
          -32 hlineto
          -19 33 -9 32 41 vvcurveto
          43 13 36 15 19 vhcurveto
          endchar
        </CharString>
        <CharString name="period">
          -220 201 19 rmoveto
          12 0 12 1 13 vhcurveto
          1 23 2 29 3 29 -40 39 rcurveline
          -120 -33 rlineto
          -12 0 -12 -1 -13 vhcurveto
          -1 -23 -1 -29 -3 -29 40 -39 rcurveline
          endchar
        </CharString>
        <CharString name="periodcentered">
          -220 201 277 rmoveto
          11 0 13 1 13 vhcurveto
          1 23 2 29 3 29 -40 39 rcurveline
          -120 -33 rlineto
          -12 0 -12 -1 -13 vhcurveto
          -1 -23 -1 -29 -3 -29 40 -39 rcurveline
          endchar
        </CharString>
        <CharString name="plus">
          37 480 360 rmoveto
          -184 184 -92 -184 -184 -92 184 -184 92 184 184 hlineto
          endchar
        </CharString>
        <CharString name="plusminus">
          74 498 121 rmoveto
          -460 -92 460 hlineto
          423 vmoveto
          -184 184 -92 -184 -184 -92 184 -184 92 184 184 hlineto
          endchar
        </CharString>
        <CharString name="q">
          24 355 97 hstem
          458 426 rmoveto
          16 -52 -73 10 -50 hhcurveto
          -141 -119 -162 -195 -13 4 -39 8 -29 hvcurveto
          88 -28 57 18 68 65 48 72 rlinecurve
          7 -3 -31 -350 36 -58 215 60 -8 85 rlineto
          -12 -30 -1 -3 -27 hvcurveto
          -3 27 -1 54 40 vvcurveto
          136 8 229 8 69 vhcurveto
          -162 -105 rmoveto
          -11 -96 -82 -69 -32 -3 rrcurveto
          -1 11 0 10 11 vvcurveto
          93 38 77 51 12 15 -2 -4 11 vhcurveto
          endchar
        </CharString>
        <CharString name="question">
          -94 192 234 rmoveto
          -11 90 rlineto
          28 32 143 74 128 vvcurveto
          82 -80 49 -103 -45 -54 -9 -8 -25 vhcurveto
          -6 -150 rlineto
          24 40 63 21 46 hhcurveto
          35 28 -8 -23 9 hvcurveto
          -53 -61 -140 -80 -62 vvcurveto
          -40 18 -44 19 -36 vhcurveto
          121 -196 rmoveto
          11 0 12 1 13 vhcurveto
          1 20 1 29 3 28 -38 37 rcurveline
          -115 -32 rlineto
          -11 0 -12 -1 -12 vhcurveto
          -1 -21 -1 -29 -3 -27 39 -38 rcurveline
          endchar
        </CharString>
        <CharString name="questiondown">
          -105 174 221 rmoveto
          11 -90 rlineto
          -28 -32 -143 -74 -128 vvcurveto
          -83 80 -48 103 45 54 9 8 25 vhcurveto
          6 150 rlineto
          -24 -40 -63 -21 -46 hhcurveto
          -35 -28 8 23 -9 hvcurveto
          53 61 140 80 62 vvcurveto
          40 -18 45 -19 35 vhcurveto
          24 60 rmoveto
          11 0 11 1 13 vhcurveto
          1 23 2 27 3 28 -38 37 rcurveline
          -115 -32 rlineto
          -11 0 -12 -1 -13 vhcurveto
          -1 -20 -1 -28 -3 -28 38 -37 rcurveline
          endchar
        </CharString>
        <CharString name="quotedbl">
          -79 200 724 rmoveto
          -149 hlineto
          26 -263 rlineto
          79 hlineto
          225 263 rmoveto
          -148 hlineto
          25 -263 rlineto
          80 hlineto
          endchar
        </CharString>
        <CharString name="quotedblbase">
          -21 62 -141 rmoveto
          81 83 63 100 3 95 -40 39 rcurveline
          -120 -33 rlineto
          1 -15 1 -14 -13 vvcurveto
          -76 -18 -48 -42 -58 vhcurveto
          272 -60 rmoveto
          81 83 63 100 3 95 -40 39 rcurveline
          -120 -33 rlineto
          1 -15 1 -14 -13 vvcurveto
          -76 -18 -48 -42 -58 vhcurveto
          endchar
        </CharString>
        <CharString name="quotedblleft">
          -24 194 770 rmoveto
          -81 -83 -63 -100 -3 -95 40 -39 rcurveline
          120 33 rlineto
          -1 15 -1 14 13 vvcurveto
          76 18 46 42 60 vhcurveto
          128 60 rmoveto
          -80 -83 -64 -101 -3 -94 40 -39 rcurveline
          120 33 rlineto
          -1 15 -1 14 13 vvcurveto
          76 18 46 42 60 vhcurveto
          endchar
        </CharString>
        <CharString name="quotedblright">
          -32 106 453 rmoveto
          81 83 63 100 3 95 -40 39 rcurveline
          -120 -33 rlineto
          1 -15 1 -14 -13 vvcurveto
          -75 -18 -47 -42 -60 vhcurveto
          270 -60 rmoveto
          81 83 63 100 3 95 -40 39 rcurveline
          -120 -33 rlineto
          1 -15 1 -14 -13 vvcurveto
          -75 -18 -47 -42 -60 vhcurveto
          endchar
        </CharString>
        <CharString name="quoteleft">
          -223 194 770 rmoveto
          -81 -83 -63 -100 -3 -95 40 -39 rcurveline
          120 33 rlineto
          -1 15 -1 14 13 vvcurveto
          76 18 46 42 60 vhcurveto
          endchar
        </CharString>
        <CharString name="quoteright">
          -232 106 453 rmoveto
          81 83 63 100 3 95 -40 39 rcurveline
          -120 -33 rlineto
          1 -15 1 -14 -13 vvcurveto
          -75 -18 -47 -42 -60 vhcurveto
          endchar
        </CharString>
        <CharString name="quotesinglbase">
          -222 62 -141 rmoveto
          81 83 63 100 3 95 -40 39 rcurveline
          -120 -33 rlineto
          1 -15 1 -14 -13 vvcurveto
          -76 -18 -48 -42 -58 vhcurveto
          endchar
        </CharString>
        <CharString name="quotesingle">
          -261 200 724 rmoveto
          -148 hlineto
          25 -263 rlineto
          80 hlineto
          endchar
        </CharString>
        <CharString name="r">
          -72 401 452 rmoveto
          -75 -69 -66 -89 -52 hvcurveto
          -8 4 25 93 -36 58 -175 -60 9 -82 rlineto
          11 33 1 3 26 hvcurveto
          -59 vlineto
          -69 -6 -79 -15 -107 vhcurveto
          168 hlineto
          5 185 rlineto
          53 3 39 58 92 5 8 -1 5 hhcurveto
          endchar
        </CharString>
        <CharString name="registered">
          44 23 468 rmoveto
          -128 103 -102 127 126 104 102 128 128 -104 102 -126 -127 -103 -102 -128 vhcurveto
          28 -1 rmoveto
          110 92 92 109 112 91 -92 -110 -111 -91 -91 -112 -109 -92 91 111 vhcurveto
          253 -126 rmoveto
          84 hlineto
          2 33 -41 22 -36 63 rlineto
          28 13 20 22 37 vvcurveto
          49 -35 32 -65 vhcurveto
          -25 -25 -3 -23 hhcurveto
          -13 -14 0 1 -12 hvcurveto
          -6 -6 0 1 -6 hvcurveto
          -2 -34 34 -22 rlineto
          -34 -6 -105 -36 vvcurveto
          -8 -7 -1 -1 -7 hvcurveto
          -3 -4 0 -1 -3 hvcurveto
          -2 -37 rlineto
          3 28 22 0 15 hhcurveto
          27 17 -2 -1 23 hvcurveto
          2 34 -33 22 rlineto
          11 0 18 1 20 vhcurveto
          15 hlineto
          9 hlineto
          -8 123 rmoveto
          28 22 -12 -29 -27 -19 -15 -32 -5 -5 0 1 -4 hvcurveto
          1 32 2 33 1 17 rrcurveto
          endchar
        </CharString>
        <CharString name="ring">
          -181 153 703 rmoveto
          36 13 -32 -23 -35 -17 -19 -31 -35 -15 30 24 31 17 24 32 hvcurveto
          -125 -63 rmoveto
          -52 30 -55 84 74 62 56 73 54 -35 48 -78 -84 -53 -59 -65 vhcurveto
          endchar
        </CharString>
        <CharString name="ring.case">
          -152 165 901 rmoveto
          35 14 -30 -25 -35 -19 -19 -29 -35 -15 28 26 31 17 24 32 hvcurveto
          -125 -63 rmoveto
          -52 30 -55 84 74 62 57 72 53 -35 49 -78 -83 -54 -60 -64 vhcurveto
          endchar
        </CharString>
        <CharString name="s">
          -39 -14 92 275 99 hstem
          292 85 rmoveto
          -5 -17 -19 -2 -17 hhcurveto
          -43 -39 10 23 -32 hvcurveto
          -10 47 rlineto
          -82 hlineto
          -5 -158 rlineto
          -9 44 41 -5 40 hhcurveto
          80 75 20 49 69 hvcurveto
          34 106 -32 76 -173 59 -59 55 rlinecurve
          3 11 11 -1 11 hhcurveto
          43 45 -11 -15 35 hvcurveto
          10 -47 rlineto
          82 hlineto
          6 158 rlineto
          9 -39 -36 5 -36 hhcurveto
          -79 -74 -22 -44 -69 hvcurveto
          -29 -115 24 -75 169 -55 60 -56 rlinecurve
          endchar
        </CharString>
        <CharString name="scaron">
          -39 46 0 115 207 endchar
        </CharString>
        <CharString name="section">
          -25 311 -5 rmoveto
          -13 55 -32 43 -38 54 -10 14 rcurveline
          -72 101 -47 83 92 vvcurveto
          15 1 10 1 9 vhcurveto
          18 4 27 -64 41 -49 40 -53 rlinecurve
          65 -95 39 -69 -112 vvcurveto
          -15 -1 -10 -1 -9 vhcurveto
          87 100 rmoveto
          143 -72 96 -79 106 vhcurveto
          -43 60 -32 42 41 vvcurveto
          11 2 8 4 7 vhcurveto
          43 -3 60 -11 71 -31 rrcurveto
          116 vlineto
          11 -38 -25 4 -40 hhcurveto
          -130 -114 -143 -176 -118 52 -92 75 -99 hvcurveto
          56 -72 24 -47 -51 vvcurveto
          -11 0 -10 -4 -7 vhcurveto
          -41 3 -60 10 -71 32 rrcurveto
          -116 vlineto
          -11 37 28 -4 41 hhcurveto
          135 121 146 166 hvcurveto
          endchar
        </CharString>
        <CharString name="semicolon">
          -202 72 -141 rmoveto
          80 83 64 101 3 94 -40 39 rcurveline
          -120 -33 rlineto
          1 -15 1 -14 -13 vvcurveto
          -76 -18 -48 -42 -58 vhcurveto
          219 383 rmoveto
          11 0 12 1 13 vhcurveto
          1 21 2 28 3 28 -39 37 rcurveline
          -114 -32 rlineto
          -11 0 -12 -1 -12 vhcurveto
          -1 -21 -1 -28 -3 -28 38 -37 rcurveline
          endchar
        </CharString>
        <CharString name="seven">
          35 223 -20 rmoveto
          88 193 83 194 122 262 -38 53 rcurveline
          -425 hlineto
          -15 -76 -15 -70 -19 -79 90 -14 rcurveline
          50 107 232 28 -98 -196 -97 -140 -115 -179 rlinecurve
          endchar
        </CharString>
        <CharString name="six">
          81 -20 109 219 102 hstem
          441 699 rmoveto
          -215 -80 -202 -164 -226 vvcurveto
          -161 109 -88 137 125 123 92 153 131 -103 54 -91 -32 -30 -6 -8 -28 vhcurveto
          53 95 94 78 101 43 rrcurveto
          -219 -304 rmoveto
          69 22 -46 -62 -72 -34 -39 -47 -50 -36 43 89 25 3 25 5 24 hvcurveto
          8 21 23 5 24 hhcurveto
          endchar
        </CharString>
        <CharString name="slash">
          83 435 719 rmoveto
          -430 -893 rlineto
          104 hlineto
          430 893 rlineto
          endchar
        </CharString>
        <CharString name="space">
          -264 endchar
        </CharString>
        <CharString name="sterling">
          84 62 428 rmoveto
          -3 -91 71 -8 rlineto
          1 -9 1 -9 -9 vvcurveto
          -92 -19 -69 -88 -88 vhcurveto
          61 -73 42 45 337 -45 rlineto
          23 35 26 147 47 vvcurveto
          -95 10 -8 -34 -15 -40 -11 -20 rlinecurve
          -173 -5 rlineto
          26 31 45 65 66 vvcurveto
          9 0 11 -3 15 vhcurveto
          -1 21 20 0 19 hhcurveto
          24 22 1 2 20 hvcurveto
          39 119 rlineto
          -5 -27 -86 -5 -72 hhcurveto
          -5 29 -4 28 27 vvcurveto
          27 5 38 26 23 vhcurveto
          74 80 -39 -45 61 hvcurveto
          7 168 rlineto
          5 -34 -66 10 -54 hhcurveto
          -131 -120 -74 -115 -28 4 -26 7 -28 hvcurveto
          endchar
        </CharString>
        <CharString name="t">
          -93 336 102 hstem
          21 438 rmoveto
          -2 -76 23 -4 24 -3 27 -1 rlinecurve
          -5 -92 -9 -90 -73 vvcurveto
          -23 1 -22 1 -20 vhcurveto
          48 -48 rlineto
          34 125 38 41 57 hvcurveto
          -27 77 -21 -7 -27 -6 -24 -4 rlinecurve
          -3 13 -3 54 24 vvcurveto
          36 3 44 4 44 vhcurveto
          -3 43 41 -1 33 hhcurveto
          17 116 -19 -3 -52 -6 -53 -3 rlinecurve
          4 40 5 35 3 24 -37 58 rcurveline
          -138 -39 rlineto
          3 -31 0 -31 -33 vvcurveto
          -25 vlineto
          endchar
        </CharString>
        <CharString name="thorn">
          9 54 -270 rmoveto
          215 60 -8 82 rlineto
          -12 -43 -1 -3 -27 hvcurveto
          14 4 77 27 vvcurveto
          14 hlineto
          139 126 140 158 41 -12 54 -21 45 hvcurveto
          -88 28 -52 -18 -50 -50 -46 -59 rlinecurve
          -7 4 42 383 -36 58 -205 -60 8 -83 rlineto
          13 31 1 3 28 hvcurveto
          -11 2 -50 -20 vvcurveto
          -216 -27 -307 -24 -239 vhcurveto
          173 357 rmoveto
          5 90 74 57 34 3 rrcurveto
          8 -17 3 -26 -27 vvcurveto
          -72 -32 -70 -55 -13 -15 1 4 -12 vhcurveto
          endchar
        </CharString>
        <CharString name="three">
          69 -20 125 456 138 hstem
          506 249 rmoveto
          87 -62 62 -75 11 vhcurveto
          51 24 49 65 59 vvcurveto
          83 -52 59 -123 -112 -79 -59 -64 -59 vhcurveto
          60 -73 rlineto
          45 56 44 13 30 hhcurveto
          40 16 -25 -27 -53 -57 -41 -48 -19 hvcurveto
          -54 -21 31 -94 rlineto
          11 23 31 8 27 hhcurveto
          56 36 -37 -54 -69 -44 -35 -52 -58 -48 15 59 -59 hvcurveto
          -76 -137 rlineto
          -51 62 76 -11 58 hhcurveto
          154 158 117 152 hvcurveto
          endchar
        </CharString>
        <CharString name="threequarters">
          241 288 441 rmoveto
          47 -32 33 -40 5 vhcurveto
          27 13 26 33 32 vvcurveto
          44 -29 31 -64 -62 -37 -32 -33 -33 vhcurveto
          33 -41 rlineto
          24 29 23 7 15 hhcurveto
          21 9 -10 -15 -28 -30 -23 -25 -8 hvcurveto
          -30 -11 17 -53 rlineto
          7 13 15 3 15 hhcurveto
          29 17 -20 -28 -36 -20 -18 -27 -31 -22 12 32 -32 hvcurveto
          -46 -75 rlineto
          -27 32 44 -8 30 hhcurveto
          83 82 58 85 hvcurveto
          -131 -458 rmoveto
          490 680 -58 44 -490 -676 rlineto
          420 29 rmoveto
          -11 -9 -1 -9 hhcurveto
          -14 -2 -2 -57 rlineto
          5 41 34 0 17 hhcurveto
          17 23 -2 -1 20 hvcurveto
          33 -2 2 52 -44 30 rlineto
          23 46 vlineto
          18 68 -18 -2 -45 -3 rlineto
          71 4 84 3 34 vhcurveto
          -58 19 -188 -213 -1 -58 rlineto
          144 hlineto
          3 140 rmoveto
          -20 -1 -31 -29 vvcurveto
          -1 -25 -26 -1 -23 hhcurveto
          endchar
        </CharString>
        <CharString name="threesuperior">
          -152 304 532 rmoveto
          47 -32 33 -40 5 vhcurveto
          27 13 26 33 32 vvcurveto
          44 -29 31 -64 -62 -37 -32 -33 -33 vhcurveto
          33 -41 rlineto
          24 29 23 7 15 hhcurveto
          21 9 -10 -15 -28 -30 -23 -25 -8 hvcurveto
          -30 -11 17 -53 rlineto
          7 13 15 3 15 hhcurveto
          29 17 -20 -28 -36 -20 -18 -27 -31 -22 12 32 -32 hvcurveto
          -46 -75 rlineto
          -27 32 44 -8 30 hhcurveto
          83 82 58 85 hvcurveto
          endchar
        </CharString>
        <CharString name="tilde">
          -44 285 540 rmoveto
          106 115 -48 49 -66 -57 -43 13 -27 13 -40 22 rlinecurve
          -44 hlineto
          -100 -111 43 -51 70 60 32 -17 32 -20 43 -16 rlinecurve
          endchar
        </CharString>
        <CharString name="tilde.case">
          -5 366 738 rmoveto
          106 115 -48 49 -66 -57 -42 13 -27 13 -41 22 rlinecurve
          -44 hlineto
          -100 -111 43 -51 70 60 31 -19 33 -18 43 -16 rlinecurve
          endchar
        </CharString>
        <CharString name="two">
          69 568 131 hstem
          295 479 rmoveto
          -103 -162 -147 -132 -136 vhcurveto
          44 -93 rlineto
          434 hlineto
          5 49 10 110 13 75 -81 13 rcurveline
          -50 -107 -232 -37 rlineto
          209 169 119 118 120 vvcurveto
          124 -81 65 -115 -107 -71 -46 -62 -62 vhcurveto
          57 -75 rlineto
          35 37 45 17 39 hhcurveto
          48 33 -37 -52 hvcurveto
          endchar
        </CharString>
        <CharString name="twosuperior">
          -134 192 652 rmoveto
          -55 -86 -81 -69 -72 vhcurveto
          23 -50 rlineto
          236 hlineto
          15 126 -49 7 -26 -52 -112 -19 rlineto
          112 91 56 57 64 vvcurveto
          67 -45 35 -63 -56 -40 -23 -35 -33 vhcurveto
          35 -46 rlineto
          19 20 18 9 21 hhcurveto
          25 18 -15 -27 hvcurveto
          endchar
        </CharString>
        <CharString name="u">
          92 217 452 rmoveto
          -211 -60 8 -82 rlineto
          12 33 1 3 27 hvcurveto
          -5 -56 -6 -79 -38 vvcurveto
          -36 2 -42 11 -48 vhcurveto
          67 -29 95 32 68 66 42 57 rlinecurve
          7 -3 -24 -94 36 -58 58 11 80 29 55 39 rlinecurve
          -27 77 -21 -8 -35 -5 -16 -3 rlinecurve
          71 11 135 11 106 vhcurveto
          -168 hlineto
          -4 -189 rlineto
          -45 -64 -42 -27 -8 vhcurveto
          -1 15 0 7 19 vvcurveto
          46 11 78 11 75 vhcurveto
          endchar
        </CharString>
        <CharString name="uacute">
          92 217 452 rmoveto
          -211 -60 8 -82 rlineto
          12 33 1 3 27 hvcurveto
          -5 -56 -6 -79 -38 vvcurveto
          -36 2 -42 11 -48 vhcurveto
          67 -29 95 32 68 66 42 57 rlinecurve
          7 -3 -24 -94 36 -58 58 11 80 29 55 39 rlinecurve
          -27 77 -21 -8 -35 -5 -16 -3 rlinecurve
          71 11 135 11 106 vhcurveto
          -168 hlineto
          -4 -189 rlineto
          -45 -64 -42 -27 -8 vhcurveto
          -1 15 0 7 19 vvcurveto
          46 11 78 11 75 vhcurveto
          37 139 rmoveto
          161 158 -21 10 -52 45 -18 18 rlinecurve
          -123 -185 rlineto
          endchar
        </CharString>
        <CharString name="ucircumflex">
          92 93 0 117 195 endchar
        </CharString>
        <CharString name="udieresis">
          92 217 452 rmoveto
          -211 -60 8 -82 rlineto
          12 33 1 3 27 hvcurveto
          -5 -56 -6 -79 -38 vvcurveto
          -36 2 -42 11 -48 vhcurveto
          67 -29 95 32 68 66 42 57 rlinecurve
          7 -3 -24 -94 36 -58 58 11 80 29 55 39 rlinecurve
          -27 77 -21 -8 -35 -5 -16 -3 rlinecurve
          71 11 135 11 106 vhcurveto
          -168 hlineto
          -4 -189 rlineto
          -45 -64 -42 -27 -8 vhcurveto
          -1 15 0 7 19 vvcurveto
          46 11 78 11 75 vhcurveto
          18 166 rmoveto
          7 0 7 1 9 vhcurveto
          15 1 21 3 24 vhcurveto
          -32 51 -102 -28 rlineto
          -22 vlineto
          -1 -15 -2 -19 -1 -25 32 -52 rcurveline
          287 27 rmoveto
          7 0 7 1 9 vhcurveto
          15 1 21 3 24 vhcurveto
          -32 51 -102 -28 rlineto
          -22 vlineto
          -1 -15 -2 -19 -1 -25 32 -52 rcurveline
          endchar
        </CharString>
        <CharString name="ugrave">
          92 124 0 117 193 endchar
        </CharString>
        <CharString name="underscore">
          320 94 -196 rmoveto
          580 hlineto
          2 58 rlineto
          -580 hlineto
          endchar
        </CharString>
        <CharString name="uni00AD">
          -83 63 302 rmoveto
          -5 -112 rlineto
          276 hlineto
          5 112 rlineto
          endchar
        </CharString>
        <CharString name="v">
          7 174 452 rmoveto
          -172 -60 9 -82 rlineto
          1 7 6 0 6 hhcurveto
          37 3 32 -131 41 -94 50 -103 rlinecurve
          91 29 75 121 rlineto
          80 128 37 70 61 vvcurveto
          19 -4 18 -7 20 vhcurveto
          -165 -26 3 -7 4 -9 3 -11 rlinecurve
          5 -16 5 -24 -31 vvcurveto
          -43 -10 -52 -36 -59 vhcurveto
          -21 55 -26 107 -5 69 rrcurveto
          endchar
        </CharString>
        <CharString name="w">
          230 493 173 rmoveto
          -21 65 -22 124 -5 90 -161 -26 rcurveline
          9 -56 10 -48 12 -49 -47 -99 rcurveline
          -21 55 -26 107 -5 69 -45 47 rcurveline
          -169 -60 9 -82 rlineto
          1 7 6 0 6 hhcurveto
          37 3 35 -131 38 -94 50 -103 rlinecurve
          88 29 75 131 17 -53 21 -52 24 -55 rlinecurve
          87 29 78 121 rlineto
          82 128 34 69 62 vvcurveto
          19 -3 19 -7 19 vhcurveto
          -165 -26 9 -27 rlineto
          5 -16 5 -24 -29 vvcurveto
          -44 -10 -54 -37 -59 vhcurveto
          endchar
        </CharString>
        <CharString name="x">
          30 334 227 rmoveto
          91 70 30 52 52 vvcurveto
          17 -3 15 -5 19 vhcurveto
          -165 -26 4 -6 3 -7 3 -7 rlinecurve
          5 -13 5 -15 -20 vvcurveto
          -16 -5 -20 -12 -17 vhcurveto
          -64 100 -58 47 -141 -60 8 -82 23 2 rlineto
          13 17 2 3 12 hvcurveto
          70 -110 rlineto
          -97 -81 -37 -45 -64 vvcurveto
          -12 1 -12 2 -13 vhcurveto
          165 26 -3 5 -2 6 -1 5 rlinecurve
          -4 11 -2 14 15 vvcurveto
          23 7 24 21 21 vhcurveto
          77 -121 53 -23 60 16 51 24 47 33 rlinecurve
          -35 73 -63 -15 rlineto
          endchar
        </CharString>
        <CharString name="y">
          8 181 8 rmoveto
          -52 -67 -72 -53 -81 -29 82 -129 rcurveline
          79 57 77 112 64 101 66 109 rcurveline
          79 129 50 89 72 vvcurveto
          19 -3 18 -7 16 vhcurveto
          -165 -26 3 -7 4 -9 3 -10 rlinecurve
          5 -17 5 -23 -29 vvcurveto
          -44 -11 -53 -36 -60 vhcurveto
          -21 55 -26 107 -5 69 -45 47 rcurveline
          -171 -60 8 -82 rlineto
          9 14 1 1 12 hvcurveto
          22 2 32 -131 31 -72 50 -103 rlinecurve
          endchar
        </CharString>
        <CharString name="yacute">
          8 151 0 121 194 endchar
        </CharString>
        <CharString name="ydieresis">
          8 181 8 rmoveto
          -52 -67 -72 -53 -81 -29 82 -129 rcurveline
          79 57 77 112 64 101 66 109 rcurveline
          79 129 50 89 72 vvcurveto
          19 -3 18 -7 16 vhcurveto
          -165 -26 3 -7 4 -9 3 -10 rlinecurve
          5 -17 5 -23 -29 vvcurveto
          -44 -11 -53 -36 -60 vhcurveto
          -21 55 -26 107 -5 69 -45 47 rcurveline
          -171 -60 8 -82 rlineto
          9 14 1 1 12 hvcurveto
          22 2 32 -131 31 -72 50 -103 rlinecurve
          57 552 rmoveto
          7 0 7 1 9 vhcurveto
          15 1 21 3 24 vhcurveto
          -32 51 -102 -28 rlineto
          -22 vlineto
          -1 -15 -2 -19 -1 -25 32 -52 rcurveline
          287 27 rmoveto
          7 0 7 1 9 vhcurveto
          15 1 21 3 24 vhcurveto
          -32 51 -102 -28 rlineto
          -22 vlineto
          -1 -15 -2 -19 -1 -25 32 -52 rcurveline
          endchar
        </CharString>
        <CharString name="yen">
          291 273 581 rmoveto
          24 1 22 1 35 4 5 95 rcurveline
          -4 -49 -55 -4 -65 hhcurveto
          -61 -61 4 4 -43 hvcurveto
          -5 -87 78 -55 82 -134 rlineto
          -85 hlineto
          -4 -100 43 4 49 2 52 3 rlinecurve
          40 -65 rlineto
          -187 hlineto
          -4 -100 53 4 71 3 75 3 rlinecurve
          -1 -24 -2 -23 -1 -15 rrcurveto
          -19 -20 -2 -1 -15 hvcurveto
          -27 -3 -3 -95 rlineto
          8 72 49 0 47 hhcurveto
          41 41 -3 -1 31 hvcurveto
          50 -4 3 86 -83 56 rlineto
          25 vlineto
          146 2 rlineto
          61 hlineto
          3 84 rlineto
          -205 hlineto
          49 70 rlineto
          1 39 40 1 29 hhcurveto
          50 hlineto
          3 84 rlineto
          -101 hlineto
          122 176 22 3 8 -2 22 5 rlinecurve
          4 94 rlineto
          -5 -43 -52 -3 -55 hhcurveto
          -56 -43 3 5 -43 hvcurveto
          -4 -87 65 -55 -97 -166 rlineto
          -19 hlineto
          endchar
        </CharString>
        <CharString name="z">
          -5 42 249 rmoveto
          83 hlineto
          14 69 rlineto
          37 50 0 8 35 hvcurveto
          -240 -266 73 -74 35 39 283 -39 16 56 13 76 7 76 rlinecurve
          -82 9 -21 -71 rlineto
          -127 hlineto
          229 254 -34 66 rlineto
          -7 -53 -51 -2 -61 hhcurveto
          -65 -68 2 7 -65 hvcurveto
          endchar
        </CharString>
        <CharString name="zcaron">
          -5 53 0 122 207 endchar
        </CharString>
        <CharString name="zero">
          143 -20 104 512 103 hstem
          292 -20 rmoveto
          208 75 201 175 172 -72 171 -191 -209 -72 -201 -175 -173 71 -170 190 hvcurveto
          11 104 rmoveto
          -86 -23 166 104 84 14 158 95 86 23 -165 -105 -84 -16 -158 -93 hvcurveto
          endchar
        </CharString>
</ttFont>
